<svg xmlns="http://www.w3.org/2000/svg" style="width:0; height:0; visibility:hidden;">
    <symbol id="symbol-account" viewBox="0 0 35 35">
      <path d="M17.5 31C24.956 31 31 24.956 31 17.5S24.956 4 17.5 4 4 10.044 4 17.5 10.044 31 17.5 31zm-8.31-2.742s.91-.974 1.733-1.35c.824-.376 2.468-.91 2.878-1.087.412-.176 1.355-.75 1.355-1.192 0-.44.097-2.518.097-2.518s-.567-.683-.8-1.165c-.232-.483-.432-1.21-.432-1.21s-.55-.286-.775-.687c-.225-.402-.25-1.392-.25-1.392l.37-.337-.002-4.172s.025-1.367.623-1.918c.598-.55.938-1.182 1.86-1.398.922-.215 2.366-.12 2.656-.12.29 0 .76.246 1.137.415.377.17 1.256-.088 1.47.233.217.32 1.375.797 1.375 2.093 0 1.296.01 2.807-.206 3.43-.216.623-.584 1.31-.584 1.31l.64.183s.288.594-.024 1.133c-.313.538-.755 1.225-1.03 1.225-.273 0-.332.6-.332.8 0 .2-.55 1.293-.72 1.293-.17 0-.193 2.567-.193 2.567s.463 1.27 1.246 1.47c.783.2 2.955.8 3.523 1.183.568.383 1.143 1.133 1.143 1.133" fill-rule="evenodd"/>
    </symbol>
    <symbol id="symbol-add" viewBox="0 0 35 35">
      <path d="M18 32c7.732 0 14-6.268 14-14S25.732 4 18 4 4 10.268 4 18s6.268 14 14 14zm7.513-14H11m7-7v15" fill-rule="evenodd"/>
    </symbol>
    <symbol id="symbol-alert-error" viewBox="0 0 35 35">
      <path d="M7.5 7.5l20 20M27 8L7 28" fill-rule="evenodd" stroke-linecap="square"/>
    </symbol>
    <symbol id="symbol-alert-warning" viewBox="0 0 35 35">
      <g fill-rule="evenodd"><path d="M16.37 21.947h1.304v-8.88H16.37v8.88zm.635 4.163c.69 0 1.25-.56 1.25-1.25s-.56-1.25-1.25-1.25-1.25.56-1.25 1.25.56 1.25 1.25 1.25z"/><path d="M17.018 4l15.018 27H2L17.018 4z"/></g>
    </symbol>
    <symbol id="symbol-arrived" viewBox="0 0 35 35">
      <path d="M17.224 32s9.926-10.595 9.926-17.26c0-6.664-4.078-9.74-9.926-9.74C11.377 5 8 8.43 8 14.74 8 21.05 17.224 32 17.224 32zM13 17.094l3.05 3.1L22.13 14" fill-rule="evenodd"/>
    </symbol>
    <symbol id="symbol-arrow-down" viewBox="0 0 35 35">
      <path d="M5 12.117l12.3 13.08L29.515 12" fill-rule="evenodd"/>
    </symbol>
    <symbol id="symbol-arrow-left" viewBox="0 0 35 35">
      <path d="M23.74 6.34l-13.08 12.3 13.197 12.217" fill-rule="evenodd"/>
    </symbol>
    <symbol id="symbol-arrow-right" viewBox="0 0 35 35">
      <path d="M10.777 30.857l13.08-12.3L10.66 6.342" fill-rule="evenodd"/>
    </symbol>
    <symbol id="symbol-arrow-up" viewBox="0 0 35 35">
      <path d="M5 25.08L17.3 12l12.216 13.197" fill-rule="evenodd"/>
    </symbol>
    <symbol id="symbol-booking" viewBox="0 0 35 35">
      <path d="M22.89 5.453v22.33m-14.765-5.55h3.764M8.256 16.39h3.763m-3.763-5.842h3.763m-1.945-4.09c0-.556.453-1.005 1.008-1.005h14.91c.556 0 1.007.445 1.007 1.004v21.36c0 .555-.453 1.005-1.008 1.005h-14.91c-.555 0-1.007-.446-1.007-1.005V6.457z" fill-rule="evenodd" stroke-linecap="square"/>
    </symbol>
    <symbol id="symbol-calendar" viewBox="0 0 35 35">
      <path d="M9.75 6.195v3.508M6.5 12.75h23m-3.75-6.555v3.508M5 7.95h26V29H5V7.95zm18.433 15.8h1.552m-5.82 0h1.55m-5.82 0h1.553m-5.82 0h1.55m11.246-3.485h1.552m-5.723-.026h1.552m-5.902-.003h1.552m-5.825.018h1.552m11.25-3.505h1.553m-5.82 0h1.55m-5.82 0h1.553m-5.82 0h1.55m11.255 0h1.552m-5.82 0h1.55m-5.82 0h1.553m-5.82 0h1.55" fill-rule="evenodd" stroke-linecap="square"/>
    </symbol>
    <symbol id="symbol-check" viewBox="0 0 35 35">
      <path d="M4 18.194l9.063 9.216L31.13 9" fill-rule="evenodd"/>
    </symbol>
    <symbol id="symbol-close" viewBox="0 0 35 35">
      <path d="M7.5 7.5l20 20M27 8L7 28" fill-rule="evenodd" stroke-linecap="square"/>
    </symbol>
    <symbol id="symbol-edit-smaller" viewBox="0 0 35 35">
      <path d="M8.396 23.564L5 30.887l7.725-2.8 17.083-17.9s2.12-2.185-.19-4.296c-2.312-2.11-4.41.19-4.41.19L8.395 23.564z" fill-rule="evenodd"/>
    </symbol>
    <symbol id="symbol-edit" viewBox="0 0 35 35">
      <path d="M8.396 23.564L5 30.887l7.725-2.8 17.083-17.9s2.12-2.185-.19-4.296c-2.312-2.11-4.41.19-4.41.19L8.395 23.564zm.18.29l3.83 3.944M25.46 6.376l4.01 4.128" fill-rule="evenodd"/>
    </symbol>
    <symbol id="symbol-error" viewBox="0 0 35 35">
      <path d="M18 32c7.732 0 14-6.268 14-14S25.732 4 18 4 4 10.268 4 18s6.268 14 14 14zm5.714-19.714L12.286 23.714m0-11.428l11.428 11.428" fill-rule="evenodd"/>
    </symbol>
    <symbol id="symbol-feedback" viewBox="0 0 35 35">
      <path d="M8.846 10.75h19.026m-19.026 7h10.59m-10.59-4h19.026M4 6.993C4 6.445 4.44 6 4.997 6h26.006c.55 0 .997.45.997.993v15.554c0 .548-.45.993-1.007.993h-3.51c-.556 0-1.246.34-1.304.884l.37 4.117c.086.547-.113.633-.447.194l-3.96-4.663c-.45-.292-1.26-.53-1.82-.53H5.005C4.45 23.54 4 23.09 4 22.547V6.993z" fill-rule="evenodd" stroke-linecap="square"/>
    </symbol>
    <symbol id="symbol-finished" viewBox="0 0 35 35">
      <path d="M22.214 9.922c-1.055-.723-2.242-1.268-3.518-1.59C17.833 8.116 16.93 8 16 8 9.925 8 5 12.925 5 19s4.925 11 11 11 11-4.925 11-11m-13-3.872l5.054 5.14L29.13 10" fill-rule="evenodd"/>
    </symbol>
    <symbol id="symbol-flag" viewBox="0 0 35 35">
      <path d="M11.205 5.89s3.808-2.006 5.498-1.563c1.69.443 3.894 2.523 5.643 2.523 1.792 0 5.715-2.247 6.277-1.287.562.96.43 10.348 0 11.326-.428.976-3.15 2.158-5.752 2.64-2.6.48-4.205-3.316-7.017-2.64-2.812.673-4.574 1.637-4.574 1.637M10.75 4.5v26" fill-rule="evenodd"/>
    </symbol>
    <symbol id="symbol-guests" viewBox="0 0 35 35">
      <path d="M5 28.068s1.08-1.157 2.06-1.604c.98-.447 2.934-1.08 3.422-1.292.488-.21 1.608-.894 1.608-1.418 0-.524.115-2.993.115-2.993s-.673-.81-.95-1.384c-.275-.574-.513-1.438-.513-1.438s-.654-.34-.92-.817c-.27-.476-.297-1.653-.297-1.653l.437-.4-.002-4.958s.03-1.626.74-2.28c.71-.656 1.116-1.406 2.212-1.662 1.096-.257 2.812-.143 3.157-.143.343 0 .903.292 1.35.493.45.2 1.494-.105 1.75.276.257.382 1.634.948 1.634 2.49 0 1.54.01 3.335-.245 4.075-.258.74-.695 1.556-.695 1.556l.76.217s.344.707-.028 1.347c-.37.64-.896 1.458-1.222 1.458-.326 0-.396.713-.396.95 0 .238-.656 1.538-.857 1.538-.2 0-.23 3.05-.23 3.05s.55 1.51 1.482 1.748c.93.237 3.512.95 4.187 1.406.675.456 1.358 1.348 1.358 1.348M20.39 6.214c1.4-.244 1.706-.2 2.154 0 .45.2 1.45.288 1.706.67.256.38 1.633.947 1.633 2.488 0 1.54.012 3.336-.245 4.076-.256.74-.693 1.556-.693 1.556l.76.218s.343.707-.028 1.347c-.372.64-.897 1.457-1.223 1.457-.326 0-.396.712-.396.95s-.655 1.537-.855 1.537c-.2 0-.23 3.052-.23 3.052s.55 1.51 1.48 1.747c.932.237 3.514.95 4.19 1.406.674.455 1.357 1.346 1.357 1.346" fill-rule="evenodd"/>
    </symbol>
    <symbol id="symbol-info" viewBox="0 0 35 35">
      <g transform="translate(4 4)" fill-rule="evenodd"><path d="M11.796 11.575l1.702-.196 1.886-.38-1.802 6.71s-.29 1.096-.51 1.642c-.22.546-.357.914 0 1.12.36.204.697 0 .788-.078.09-.076 1.226-1.17 1.342-1.258.116-.086.126.098.126.098s-1.06 1.48-1.468 1.927c-.408.45-.567.535-.86.632-.293.097-1.075.1-1.382-.153-.307-.254-.733-.774-.59-1.526.145-.75.21-.88.21-.88l2.046-7.298-1.488-.06v-.3zM15.25 9.5c.69 0 1.25-.56 1.25-1.25S15.94 7 15.25 7 14 7.56 14 8.25s.56 1.25 1.25 1.25z"/><circle cx="14" cy="14" r="14"/></g>
    </symbol>
    <symbol id="symbol-login" viewBox="0 0 35 35">
      <path d="M29.698 17.563l-5.202 5.187m-4.822 8H6.496M19.75 23.4v7.333m4.935-18.878l4.98 5.59m-17.832.305l17.41-.117M6.496 30.75V5.796m13.07-.046H6.495m13.156-.01v7.07" fill-rule="evenodd" stroke-linecap="square"/>
    </symbol>
    <symbol id="symbol-logo-bw" viewBox="0 0 817.951 283.805">
      <g fill-rule="evenodd" clip-rule="evenodd"><path d="M968.632 92.553C942.48 61.296 895.486 57.57 855.67 71.093l17.184 75.216c19.182-32.226 61.552-48.234 95.778-53.757z"/><path d="M1019.076 128.576c21.116-35.264 10.28-82.254-14.768-116.207L939.305 52.46c36.643 8.487 64.383 45.2 79.77 76.114z"/><path d="M1002.377 185.23c43.266 6.69 76.663-10.905 102.332-49.34l-59.48-52.653c2.688 40.578-14.563 73.493-42.853 101.992z"/><path d="M941.998 186.263c3.103 40.645 38.64 72.385 78.527 84.67l29.88-71.698c-34.574 14.424-77.98 2.692-108.407-12.972z"/><path d="M922.47 127.265c-38.3 15.732-55.69 60.653-55.343 103.16l75.147 6.487c-25.12-29.327-23.808-75.63-19.805-109.647z"/></g><g fill-rule="evenodd" clip-rule="evenodd"><path d="M1153.86 124.847l-5.948 57.797c0 1.505.753 2.846 2.515 3.852 1.673 1.088 4.188 1.59 7.537 1.59h4.86c7.033 0 10.718-1.925 11.135-5.61l5.528-56.37c4.524-5.947 9.63-8.965 15.33-8.965 1.676 0 3.18.254 4.604.757 1.342.585 2.26.834 2.597.834 1.255 0 2.764-2.007 4.522-6.027 1.677-3.938 2.515-7.456 2.515-10.39 0-5.442-2.683-8.12-8.208-8.12-7.79 0-14.66 4.437-20.61 13.4-.25-2.85-.416-4.858-.584-6.03-.25-1.256-.753-2.43-1.59-3.685-.753-1.174-1.928-1.76-3.436-1.76-5.86 0-10.806.586-14.572 1.76-3.852 1.255-5.78 2.68-5.78 4.605l.336 9.8c0 3.856-.334 8.044-.755 12.564zM1269.45 123.088c0 3.1-1.678 5.78-4.946 8.04-3.35 2.35-8.71 3.436-16.162 3.436h-8.462c2.932-13.148 9.214-19.765 19.013-19.765 7.034-.002 10.556 2.844 10.556 8.288zm-30.826 27.643c5.778.84 11.812 1.256 18.26 1.256 9.967 0 18.76-2.68 26.384-8.04 7.623-5.276 11.39-13.402 11.39-24.208 0-5.53-2.094-10.805-6.282-16-2.26-2.846-5.778-5.107-10.55-6.866-4.86-1.758-10.557-2.68-17.174-2.68-14.236 0-25.88 4.606-34.84 13.82-9.048 9.13-13.57 23.2-13.57 42.383 0 12.228 3.43 21.692 10.3 28.563 6.786 6.78 17.255 10.217 31.243 10.217 6.363 0 12.813-1.007 19.094-2.932 6.28-1.926 10.134-5.026 11.476-9.378.253-.838.503-2.932.838-6.118.335-3.182.585-5.78.585-7.537 0-1.59-.504-2.43-1.424-2.43-.336 0-1.84.67-4.524 1.926-2.597 1.342-6.028 2.597-10.216 3.853-4.274 1.34-8.797 1.93-13.737 1.93-4.942 0-8.962-1.174-12.062-3.69-3.1-2.593-4.86-7.203-5.194-14.07zM1355.215 116.39c2.932 1.255 4.524 1.758 4.777 1.758 1.59 0 3.518-1.677 5.78-5.194 2.343-3.432 3.516-6.114 3.516-8.04 0-3.686-2.683-6.45-8.126-8.123-5.358-1.676-11.223-2.596-17.59-2.596-10.302 0-18.678 2.847-25.128 8.458-6.53 5.61-9.714 13.652-9.714 24.122 0 4.858 1.088 8.878 3.264 12.065 2.18 3.262 4.777 5.61 7.877 7.033 3.016 1.51 6.03 2.765 9.13 3.853 3.1 1.088 5.61 2.43 7.872 3.938 2.094 1.59 3.182 3.6 3.182 6.028 0 5.947-3.853 8.797-11.558 8.797-5.362 0-10.806-1.428-16.25-4.356-1.843-1.092-2.845-1.595-3.1-1.595-2.596 0-3.933 5.28-3.933 15.83 0 4.442 4.102 7.456 12.31 9.382 4.274.92 8.63 1.424 13.067 1.424 10.72 0 19.517-3.014 26.216-9.13 6.617-6.113 9.966-14.575 9.966-25.462 0-5.947-1.673-10.806-4.94-14.577-3.268-3.767-6.867-6.282-10.72-7.45-3.852-1.26-7.373-2.766-10.723-4.524-3.268-1.76-4.86-3.853-4.86-6.368 0-4.69 3.268-7.034 9.967-7.034 3.523 0 6.705.585 9.718 1.76zM1386.122 124.847l-5.947 57.797c0 1.505.84 2.846 2.515 3.852 1.673 1.088 4.188 1.59 7.537 1.59h4.94c7.035 0 10.724-1.925 11.055-5.61l5.615-56.537c4.523-6.873 9.8-10.222 15.746-10.222s8.878 2.932 8.878 8.797c0 1.17-2.01 20.518-5.864 58.13 0 1.504.84 2.845 2.597 3.85 1.677 1.09 4.188 1.592 7.455 1.592h4.94c7.035 0 10.724-1.926 11.055-5.61l5.448-56.707c4.606-6.703 9.8-10.053 15.747-10.053 5.946 0 8.878 2.932 8.878 8.797l-4.02 42.21c0 14.994 7.034 22.45 21.275 22.45 3.517 0 6.784-.838 9.966-2.344 3.182-1.59 5.026-3.853 5.526-6.87.756-4.774 1.173-8.124 1.173-9.882 0-1.76-.503-2.597-1.34-2.597l-1.927.504c-1.256.335-2.26.503-3.182.503-3.517 0-5.276-1.93-5.276-5.783l4.355-46.15c0-14.825-7.705-22.363-23.2-22.363-5.277 0-10.556 1.424-15.832 4.104-5.276 2.683-9.382 5.865-12.31 9.467-2.597-9.045-9.967-13.57-22.2-13.57-5.02 0-10.048 1.34-15.074 4.02-5.027 2.598-9.048 5.78-12.148 9.55-.082-2.515-.25-4.61-.5-6.032-.67-3.684-2.428-5.61-5.112-5.61-5.86 0-10.805.584-14.572 1.758-3.853 1.255-5.78 2.68-5.78 4.605l.336 9.8c.005 3.86-.33 8.047-.752 12.567zM1534.712 100.893l-6.617 65.834c0 14.993 7.034 22.45 21.275 22.45 3.432 0 6.785-.84 9.966-2.345 3.182-1.59 5.026-3.853 5.53-6.87.752-4.774 1.17-8.124 1.17-9.882 0-1.76-.504-2.597-1.424-2.597l-1.927.503c-1.255.335-2.26.503-3.1.503-3.517 0-5.276-1.93-5.276-5.784 0-1.088 2.093-21.86 6.45-61.98 0-1.506-.922-2.766-2.598-3.854-1.673-1.087-4.188-1.59-7.37-1.59h-4.94c-7.038 0-10.805 1.844-11.14 5.61zm28.645-26.048l1.59-14.49c0-1.51-.837-2.765-2.51-3.853-1.76-1.006-4.188-1.59-7.542-1.59h-4.855c-7.04 0-10.806 1.925-11.06 5.692l-1.672 14.408c0 1.505.834 2.846 2.596 3.934 1.673 1.006 4.188 1.51 7.537 1.51h4.86c7.036 0 10.722-1.844 11.057-5.61zM1600.88 149.308c0-11.14 1.678-19.684 5.195-25.63 3.35-5.947 8.208-8.88 14.49-8.88 9.128 0 13.737 6.533 13.737 19.35 0 11.054-1.762 19.598-5.28 25.544-3.43 5.947-8.207 8.797-14.322 8.797-9.214 0-13.82-6.37-13.82-19.182zm-16.75 29.982c6.448 6.617 16 9.885 28.476 9.885 14.993 0 26.804-4.94 35.348-14.74 8.543-9.803 12.9-23.622 12.9-41.462 0-12.646-3.268-22.28-9.718-28.898-6.45-6.532-16-9.88-28.477-9.88-8.798 0-16.503 1.59-23.035 4.69-6.45 3.096-11.476 7.37-14.993 12.813-6.785 10.555-10.135 23.536-10.135 38.865 0 12.564 3.183 22.114 9.632 28.727z"/></g><g fill-rule="evenodd" clip-rule="evenodd"><path d="M119.346 100.553C93.193 69.296 46.2 65.57 6.384 79.093l17.184 75.216c19.182-32.226 61.552-48.234 95.778-53.757zM169.79 136.576c21.115-35.264 10.28-82.254-14.77-116.207l-65 40.09c36.64 8.49 64.38 45.202 79.77 76.116zM153.09 193.23c43.267 6.69 76.664-10.905 102.333-49.34l-59.48-52.653c2.69 40.578-14.563 73.493-42.852 101.992zM92.71 194.263c3.104 40.645 38.64 72.385 78.528 84.67l29.88-71.698c-34.573 14.424-77.978 2.692-108.407-12.972zM73.182 135.265c-38.3 15.732-55.69 60.653-55.342 103.16l75.147 6.487c-25.118-29.327-23.808-75.63-19.805-109.647z"/></g><g fill-rule="evenodd" clip-rule="evenodd"><path d="M304.573 132.847l-5.947 57.797c0 1.505.753 2.846 2.515 3.852 1.674 1.088 4.19 1.59 7.538 1.59h4.86c7.033 0 10.72-1.925 11.136-5.61l5.53-56.37c4.523-5.947 9.63-8.965 15.328-8.965 1.677 0 3.182.254 4.605.757 1.342.585 2.26.834 2.597.834 1.256 0 2.765-2.007 4.523-6.027 1.677-3.938 2.515-7.456 2.515-10.39 0-5.442-2.683-8.12-8.208-8.12-7.79 0-14.658 4.437-20.608 13.4-.25-2.85-.417-4.858-.585-6.03-.25-1.256-.752-2.43-1.59-3.685-.752-1.174-1.926-1.76-3.435-1.76-5.86 0-10.806.586-14.572 1.76-3.852 1.255-5.78 2.68-5.78 4.605l.336 9.8c0 3.856-.336 8.044-.757 12.564zM420.162 131.088c0 3.1-1.677 5.78-4.945 8.04-3.35 2.35-8.71 3.436-16.162 3.436h-8.462c2.932-13.148 9.214-19.765 19.013-19.765 7.035-.002 10.556 2.844 10.556 8.288zm-30.825 27.643c5.778.84 11.812 1.256 18.26 1.256 9.967 0 18.76-2.68 26.384-8.04 7.624-5.276 11.39-13.402 11.39-24.208 0-5.53-2.093-10.805-6.28-16-2.262-2.846-5.78-5.107-10.552-6.866-4.86-1.758-10.556-2.68-17.173-2.68-14.236 0-25.88 4.606-34.84 13.82-9.048 9.13-13.57 23.2-13.57 42.383 0 12.228 3.43 21.692 10.3 28.563 6.785 6.78 17.255 10.217 31.243 10.217 6.363 0 12.813-1.007 19.095-2.932 6.282-1.926 10.135-5.026 11.477-9.378.253-.838.503-2.932.838-6.118.335-3.182.585-5.78.585-7.537 0-1.59-.503-2.43-1.423-2.43-.336 0-1.84.67-4.524 1.926-2.597 1.342-6.028 2.597-10.216 3.853-4.274 1.34-8.797 1.93-13.737 1.93-4.94 0-8.96-1.174-12.06-3.69-3.102-2.593-4.86-7.203-5.196-14.07zM505.93 124.39c2.93 1.255 4.523 1.758 4.776 1.758 1.59 0 3.518-1.677 5.78-5.194 2.343-3.432 3.516-6.114 3.516-8.04 0-3.686-2.683-6.45-8.126-8.123-5.358-1.676-11.223-2.596-17.59-2.596-10.302 0-18.678 2.847-25.128 8.458-6.53 5.61-9.714 13.652-9.714 24.122 0 4.858 1.088 8.878 3.264 12.065 2.18 3.262 4.777 5.61 7.877 7.033 3.014 1.51 6.028 2.765 9.128 3.853 3.1 1.088 5.612 2.43 7.873 3.938 2.094 1.59 3.182 3.6 3.182 6.028 0 5.947-3.853 8.797-11.558 8.797-5.362 0-10.806-1.428-16.25-4.356-1.843-1.092-2.845-1.595-3.1-1.595-2.596 0-3.933 5.28-3.933 15.83 0 4.442 4.102 7.456 12.31 9.382 4.274.92 8.63 1.424 13.067 1.424 10.72 0 19.517-3.014 26.216-9.13 6.617-6.113 9.966-14.575 9.966-25.462 0-5.947-1.673-10.806-4.94-14.577-3.268-3.767-6.867-6.282-10.72-7.45-3.853-1.26-7.374-2.766-10.724-4.524-3.267-1.76-4.86-3.853-4.86-6.368 0-4.69 3.27-7.034 9.968-7.034 3.523 0 6.705.585 9.72 1.76zM536.836 132.847l-5.947 57.797c0 1.505.837 2.846 2.514 3.852 1.673 1.088 4.188 1.59 7.537 1.59h4.94c7.036 0 10.725-1.925 11.056-5.61l5.615-56.537c4.524-6.873 9.8-10.222 15.747-10.222 5.946 0 8.878 2.932 8.878 8.797 0 1.17-2.012 20.518-5.865 58.13 0 1.504.84 2.845 2.597 3.85 1.677 1.09 4.188 1.592 7.455 1.592h4.94c7.035 0 10.724-1.926 11.055-5.61l5.448-56.707c4.605-6.703 9.8-10.053 15.746-10.053 5.947 0 8.88 2.932 8.88 8.797l-4.02 42.21c0 14.994 7.034 22.45 21.275 22.45 3.517 0 6.784-.838 9.966-2.344 3.183-1.59 5.027-3.853 5.527-6.87.756-4.774 1.173-8.124 1.173-9.882 0-1.76-.503-2.597-1.34-2.597l-1.927.504c-1.256.335-2.26.503-3.182.503-3.516 0-5.275-1.93-5.275-5.783l4.355-46.15c0-14.825-7.705-22.363-23.2-22.363-5.277 0-10.556 1.424-15.832 4.104-5.276 2.683-9.382 5.865-12.31 9.467-2.597-9.045-9.967-13.57-22.2-13.57-5.02 0-10.048 1.34-15.074 4.02-5.026 2.598-9.047 5.78-12.147 9.55-.082-2.515-.25-4.61-.5-6.032-.67-3.684-2.428-5.61-5.112-5.61-5.86 0-10.805.584-14.572 1.758-3.853 1.255-5.78 2.68-5.78 4.605l.336 9.8c.002 3.86-.333 8.047-.754 12.567zM685.426 108.893l-6.617 65.834c0 14.993 7.033 22.45 21.274 22.45 3.432 0 6.785-.84 9.966-2.345 3.182-1.59 5.026-3.853 5.53-6.87.752-4.774 1.17-8.124 1.17-9.882 0-1.76-.504-2.597-1.424-2.597l-1.926.503c-1.255.335-2.262.503-3.1.503-3.517 0-5.276-1.93-5.276-5.784 0-1.088 2.094-21.86 6.45-61.98 0-1.506-.92-2.766-2.597-3.854-1.673-1.087-4.188-1.59-7.37-1.59h-4.94c-7.04 0-10.806 1.844-11.14 5.61zm28.644-26.048l1.59-14.49c0-1.51-.837-2.765-2.51-3.853-1.76-1.006-4.188-1.59-7.542-1.59h-4.855c-7.04 0-10.806 1.925-11.06 5.692l-1.672 14.408c0 1.505.835 2.846 2.597 3.934 1.673 1.006 4.188 1.51 7.537 1.51h4.86c7.036 0 10.72-1.844 11.056-5.61zM751.594 157.308c0-11.14 1.677-19.684 5.194-25.63 3.35-5.947 8.208-8.88 14.49-8.88 9.128 0 13.737 6.533 13.737 19.35 0 11.054-1.762 19.598-5.28 25.544-3.43 5.947-8.207 8.797-14.322 8.797-9.214 0-13.82-6.37-13.82-19.182zm-16.75 29.982c6.448 6.617 16 9.885 28.476 9.885 14.993 0 26.805-4.94 35.348-14.74 8.543-9.803 12.9-23.622 12.9-41.462 0-12.646-3.268-22.28-9.718-28.898-6.45-6.532-16-9.88-28.477-9.88-8.797 0-16.502 1.59-23.034 4.69-6.45 3.096-11.477 7.37-14.994 12.813-6.785 10.555-10.135 23.536-10.135 38.865 0 12.564 3.183 22.114 9.633 28.727z"/></g>
    </symbol>
    <symbol id="symbol-logout" viewBox="0 0 35 35">
      <path d="M5.652 17.563l5.203 5.187m4.822 8h13.178M15.6 23.4v7.333m-4.934-18.878l-4.98 5.59m17.83.305l-17.41-.117m22.75 13.117V5.796m-13.07-.046h13.07m-13.157-.01v7.07" fill-rule="evenodd" stroke-linecap="square"/>
    </symbol>
    <symbol id="symbol-no-show" viewBox="0 0 35 35">
      <g transform="translate(3 8)" fill-rule="evenodd"><path d="M14.806 16.59c8.686 0 14.807-7.332 14.807-7.332s-6.12-7.28-14.807-7.28C6.12 1.98 0 9.26 0 9.26s6.12 7.33 14.806 7.33zm.194-.026c4.01 0 7.258-3.272 7.258-7.308S19.008 1.95 15 1.95c-4.01 0-7.258 3.27-7.258 7.306s3.25 7.308 7.258 7.308zm-9.92 2.192L24.92.244"/><ellipse cx="14.758" cy="9.5" rx="3.629" ry="3.654"/></g>
    </symbol>
    <symbol id="symbol-password" viewBox="0 0 35 35">
      <path d="M11.323 14.94S10.103 5 17.653 5c7.547 0 6.143 9.94 6.143 9.94m-16.296 0H28v14.366H7.5V14.94zm10.15 4.56v5" fill-rule="evenodd"/>
    </symbol>
    <symbol id="symbol-promote" viewBox="0 0 35 35">
      <path d="M2 15.976v5.73l20.1 5.628V10L2 15.976zm6.05 7.308c-.033.234-.05.473-.05.716 0 2.76 2.24 5 5 5 2.088 0 3.878-1.28 4.626-3.1m10.54-7.337h5.265m-5.18-4.688l4.85-4.848M28.18 22.775l4.52 4.52m-7.47 2.99V6.316l-3.126 3.69V26.86l3.126 3.424z" fill-rule="evenodd"/>
    </symbol>
    <symbol id="symbol-refresh" viewBox="0 0 35 35">
      <path d="M26.436 12.995c-.175-.296-.61-.866-.81-1.142-1.89-2.587-4.893-4.26-8.276-4.26C11.634 7.593 7 12.368 7 18.26c0 5.89 4.634 10.667 10.35 10.667 3.422 0 6.456-1.712 8.34-4.35m1.164-11.153v-5.55M21 13.417h6.5" fill-rule="evenodd"/>
    </symbol>
    <symbol id="symbol-restaurant" viewBox="0 0 35 35">
      <path d="M11.768 20.964v6.72h12.168v-6.988M13 18.246c.656 1.63 2.115 2.987 4.903 2.987 3.255 0 4.578-1.596 5.08-3.233m-1-7.39c-.656-1.626-2.116-2.985-4.903-2.985-3.255 0-4.578 1.596-5.08 3.233m8.596 0c.72-1.318 8.5-1.595 7.913 5.125-.59 6.72-7.092 4.677-7.092 4.677m-7.088-.78C13.728 21.255 6 22.21 6 15.464c0-6.747 6.657-5.278 6.657-5.278" fill-rule="evenodd"/>
    </symbol>
    <symbol id="symbol-scheduled" viewBox="0 0 35 35">
      <path d="M9.75 6.195v3.508M6.5 12.75h23m-3.75-6.555v3.508M5 7.95h26V29H5V7.95zm8 12.144l3.05 3.1L22.13 17" fill-rule="evenodd" stroke-linecap="square"/>
    </symbol>
    <symbol id="symbol-search" viewBox="0 0 35 35">
      <path d="M15 21c3.866 0 7-3.134 7-7s-3.134-7-7-7-7 3.134-7 7 3.134 7 7 7zm4.5-1.5l8 8" fill-rule="evenodd"/>
    </symbol>
    <symbol id="symbol-seated" viewBox="0 0 35 35">
      <path d="M16.826 18.175h12.14M8.465 28.31h4.583m-2.294-14.19v13.83m-7.42-13.83h14.838m.144 4.406l-3.067 9.627m12.442-9.61l2.622 9.766m1.35-22.972l-2.7 12.837" fill-rule="evenodd" stroke-linecap="square"/>
    </symbol>
    <symbol id="symbol-settings" viewBox="0 0 35 35">
      <path d="M4 19.47l5.096 1.375-2.225 4.83 2.836 2.332 4.642-2.105 1.37 4.874h3.967l1.728-4.874 4.258 2.333 2.663-2.56-2.186-4.83 4.842-1.374v-3.76l-4.39-2.47 1.957-3.384L25.67 6.28l-4.257 2.193L19.685 4h-3.968l-1.683 4.473L9.706 6.28 6.87 9.094l2.095 4.27L4 15.71v3.76zm13.586 1.75c2.2 0 3.984-1.813 3.984-4.05 0-2.236-1.783-4.05-3.984-4.05-2.2 0-3.983 1.814-3.983 4.05 0 2.237 1.783 4.05 3.983 4.05z" fill-rule="evenodd"/>
    </symbol>
    <symbol id="symbol-statistics" viewBox="0 0 35 35">
      <path d="M5.75 6.195v22.55m23.333-18.448h-4.226m4.228-.002V14.4m-9.62 7.773l9.01-11.567m-14.07 7.753l5.032 3.822M6.18 28.33l8.22-9.996M5.76 28.75h26.044" fill-rule="evenodd" stroke-linecap="square"/>
    </symbol>
    <symbol id="symbol-success" viewBox="0 0 35 35">
      <path d="M18 32c7.732 0 14-6.268 14-14S25.732 4 18 4 4 10.268 4 18s6.268 14 14 14zm-8-13.872l5.054 5.14L25.13 13" fill-rule="evenodd"/>
    </symbol>
    <symbol id="symbol-walkin" viewBox="0 0 35 35">
      <path d="M16.59 18.528s-2.778 3.87-2.778 4.178c0 .308-1.387 6.206-1.387 6.206s.045 1.86 1.387 1.86 1.56-.81 1.705-1.296c.145-.486 1.64-5.333 1.64-5.333s3.443-5.38 3.692-5.847c.248-.465.89-1.217.444-2.43-.445-1.212-.75-2.62-.75-2.62s3.2 3.762 3.49 4.16c.288.4 0 1.122.43 1.242 1.118.31 1.355-.79 1.355-1.135s-4.376-7.85-4.376-7.85-1.825-.976-2.233-.976c-.407 0-1.32-.607-1.32-.607l-1.125.607-1.248.268-.48 1.554-1.6 1.438-3.76 1.298s-1.284-.283-1.487.192c-.203.475-.116.97.295 1.34.41.373 1.15.506 1.666.506s2.694-.505 2.694-.505l2.673-1.342 1.072 5.09zm-.86-9.733c1.578 0 2.858-1.298 2.858-2.898S17.308 3 15.728 3c-1.577 0-2.857 1.297-2.857 2.897 0 1.6 1.28 2.898 2.86 2.898zm2.42 13.794c-.243.582-.173 1.466.07 2.003.24.538 3.06 4.663 3.327 4.876.27.212.9.956 1.644.767.745-.19 1.082-.6 1.082-1.515 0-.915-2.892-4.832-3.03-5.098-.14-.267-.655-4.9-.655-4.9" fill-rule="evenodd"/>
    </symbol>
    <symbol id="symbol-warning" viewBox="0 0 35 35">
      <g fill-rule="evenodd"><path d="M16.37 21.947h1.304v-8.88H16.37v8.88zm.635 4.163c.69 0 1.25-.56 1.25-1.25s-.56-1.25-1.25-1.25-1.25.56-1.25 1.25.56 1.25 1.25 1.25z"/><path d="M17.018 4l15.018 27H2L17.018 4z"/></g>
    </symbol></svg>