<svg xmlns="http://www.w3.org/2000/svg" width="32" height="32"><desc>Hola</desc><path d="M23.534 7.782V4.465l.99.187V2.745L12.425.198V.17L0 2.792v1.924l1.444-.27v26.057l10.933 1.326 1.956-.27v-5.81l3.056-.18v5.62l1.897-.23v-5.533l2.745-.16v5.363l1.5-.18 7.708-.917V10.438l.76.098V9.04L23.534 7.78zM9.796 9.326l1.885-.222v1.573l-1.884.19v-1.54zm-7.55.906l1.587-.187v1.443l-1.588.16V10.23zM3.832 23.82l-1.588-.064V22.34l1.588.038v1.44zm0-2.497l-1.588-.02v-1.418l1.588-.007v1.445zm.015-2.448l-1.59.025v-1.418l1.59-.052v1.445zm0-2.417l-1.59.07V15.11l1.59-.096v1.444zm0-2.538l-1.59.115v-1.417l1.59-.143v1.445zm.013-4.848l-1.588.204V7.86l1.59-.23V9.07zm0-2.34l-1.588.25V5.563l1.59-.274v1.443zm.824 3.173l1.68-.198v1.485l-1.68.17V9.905zm1.68 13.978l-1.68-.066v-1.46l1.68.042v1.483zm0-2.568l-1.68-.02v-1.458l1.68-.008v1.485zm.015-2.52l-1.683.027v-1.46l1.682-.054v1.487zm0-2.486l-1.683.072v-1.458l1.682-.102v1.487zm0-2.616l-1.683.123V12.36l1.682-.15v1.484zm.014-4.986l-1.682.216V7.466l1.682-.245V8.71zm0-2.408l-1.682.262V5.105l1.682-.29V6.3zm.75 3.33l1.777-.21v1.528l-1.776.18V9.63zM8.92 24.002l-1.776-.073v-1.5l1.777.045v1.527zm0-2.644l-1.776-.02v-1.5l1.777-.008v1.528zm.018-2.59l-1.778.028v-1.498l1.778-.06v1.53zm0-2.558l-1.778.078V14.79l1.778-.107v1.527zm0-2.687l-1.778.128v-1.497l1.778-.16v1.53zm.015-5.13l-1.778.228V7.124l1.778-.26v1.53zm0-2.476l-1.778.275V4.694l1.778-.307v1.53zm2.728 18.205l-1.884-.077v-1.542l1.885.046v1.572zm0-2.723l-1.884-.022v-1.542l1.885-.01V21.4zm.017-2.67l-1.885.03V17.22l1.885-.062v1.575zm0-2.634l-1.885.083v-1.544l1.885-.113v1.573zm0-2.767l-1.885.137v-1.543l1.885-.17v1.575zm.017-5.286l-1.885.243V6.744l1.884-.273v1.574zm0-2.55L9.83 5.79V4.245l1.884-.324v1.575zm9.423 2.043l1.573.23V9.25l-1.573-.202v-1.51zm0 4.93l1.573.142v1.483l-1.573-.113v-1.512zm-2.41-5.318l1.662.242v1.525l-1.663-.215V7.15zm0 5.068l1.662.148v1.525l-1.663-.12V12.22zM16.23 6.78l1.755.257v1.567l-1.756-.227V6.78zm0 5.21l1.755.157v1.566l-1.756-.127V11.99zm-2.834-5.645l1.864.273v1.615l-1.864-.24V6.344zm1.897 2.942V10.9l-1.863-.188V9.066l1.863.22zm-1.897 2.428l1.864.168v1.614l-1.864-.136v-1.645zm1.852 12.37l-1.865.075v-1.647l1.865-.044v1.614zm.027-2.643l-1.864.023V19.82l1.865.008v1.614zm0-2.705l-1.863-.03v-1.645l1.864.063v1.612zm.034-2.566l-1.863-.08v-1.647l1.862.114v1.614zm.015-10.495l-1.86-.292V3.737l1.86.324v1.615zm2.614 18.31l-1.757.072V22.46l1.756-.043v1.568zm.027-2.56l-1.756.022V19.85l1.757.008v1.567zm0-2.625l-1.756-.028v-1.598l1.757.06V18.8zM18 16.276l-1.756-.076v-1.598L18 14.71v1.566zm.014-5.084l-1.754-.176V9.42l1.754.206v1.566zm0-5.107L16.26 5.81V4.213l1.754.306v1.567zm2.28 17.804l-1.665.067V22.4l1.665-.04v1.53zm.08-2.493l-1.664.022v-1.557l1.664.008v1.527zm0-2.555l-1.662-.025V17.26l1.662.057v1.525zm.028-2.456l-1.66-.073V14.76l1.66.1v1.526zm.016-4.948l-1.662-.167V9.718l1.662.196v1.525zm0-4.972l-1.662-.26V4.65l1.662.29v1.526zm2.268 17.343l-1.576.063V22.36l1.576-.037v1.486zm.01-2.41l-1.575.02v-1.514l1.575.007V21.4zm0-2.487l-1.574-.024v-1.514l1.575.052v1.485zm.027-2.39l-1.572-.07v-1.51l1.573.095v1.484zm.015-4.818l-1.573-.158v-1.512l1.573.185v1.485zm0-4.842l-1.573-.247v-1.51l1.573.273v1.483zm6.31 6.325l1.308.13v1.353l-1.308-.106v-1.376zm-1.952-.2l1.37.137v1.387l-1.37-.112v-1.412zm-2.174-2.567l1.445.187v1.423l-1.445-.16v-1.45zm-.026 2.33l1.444.147v1.423l-1.444-.12v-1.45zm1.437 10.903l-1.446.045V22.25l1.446-.02v1.423zm.02-2.33l-1.443.006v-1.45l1.444.02v1.423zm0-2.383l-1.443-.037v-1.448l1.444.063v1.422zm.026-2.262l-1.444-.078v-1.448l1.443.103v1.423zM28.43 23.6l-1.373.043v-1.41l1.372-.02V23.6zm.022-2.266l-1.37.005v-1.412l1.37.02v1.386zm0-2.322l-1.37-.035v-1.41l1.37.06v1.385zm.025-2.232l-1.372-.074v-1.41l1.37.098v1.386zm.01-4.5l-1.37-.15v-1.41l1.37.175v1.386zm1.792 11.262l-1.31.04v-1.377l1.31-.02v1.357zm.06-2.21l-1.307.005V19.96l1.307.02v1.352zm0-2.267l-1.306-.033v-1.377l1.307.057v1.353zm.024-2.18l-1.306-.07V15.44l1.306.092v1.352zm.012-4.392l-1.306-.145V10.97l1.306.168v1.355z"/></svg>