<svg version="1" xmlns="http://www.w3.org/2000/svg" width="800" height="600" viewBox="0 0 800 600"><linearGradient id="a" gradientUnits="userSpaceOnUse" x1="551.444" y1="308.469" x2="505.324" y2="308.469" gradientTransform="translate(-129.776 -249.696)"><stop offset="0" stop-color="#ffef00"/><stop offset=".569" stop-color="#e7d31b"/><stop offset=".952" stop-color="#e5bf21"/></linearGradient><path fill="url(#a)" d="M369.78 49.24h57.9v19.063h-57.9z"/><linearGradient id="b" gradientUnits="userSpaceOnUse" x1="459.629" y1="450.515" x2="353.541" y2="489.127" gradientTransform="matrix(1 0 0 -1 4 595)"><stop offset="0" stop-color="#ffef00"/><stop offset=".569" stop-color="#e7d31b"/><stop offset=".952" stop-color="#e5bf21"/></linearGradient><path fill="url(#b)" d="M463.496 88.532h-.047v-.8c-5.43-17.398-20.144-19.334-35.96-19.42h-58.407c-15.103.254-28.154 3.416-32.945 18.28v3.414h-.12v63.724h.12v2.008c4.79 14.864 17.842 18.026 32.945 18.282h47.265c.102-.16.19-.33.288-.49h10.853c15.816-.083 30.53-1.91 35.96-18.33v-.487h.046v-66.18z"/><linearGradient id="c" gradientUnits="userSpaceOnUse" x1="565.188" y1="444.412" x2="491.05" y2="417.428" gradientTransform="translate(-128.348 -251.123)"><stop offset="0" stop-color="#ffef00"/><stop offset=".569" stop-color="#e7d31b"/><stop offset=".952" stop-color="#e5bf21"/></linearGradient><path fill="url(#c)" d="M360.77 172.005h78.002v15.583H360.77z"/><g fill="#3B3939"><circle cx="377.994" cy="110.664" r="8.469"/><circle cx="422.005" cy="110.664" r="8.469"/><path d="M417.84 137.303c-2.9 1.355-5.777 2.587-8.774 3.477-3 .89-6.112 1.44-9.537 1.442-2.52 0-5.21-.3-8.155-1.006-2.944-.708-6.143-1.824-9.657-3.467a2.49 2.49 0 0 0-2.11 4.51c3.78 1.766 7.297 3.002 10.604 3.797 3.306.794 6.402 1.144 9.316 1.144 3.966.002 7.59-.647 10.954-1.646 3.363-1 6.473-2.342 9.465-3.738a2.49 2.49 0 0 0-2.107-4.513z"/></g><linearGradient id="d" gradientUnits="userSpaceOnUse" x1="396.5" y1="40.717" x2="396.5" y2="246.194" gradientTransform="matrix(1 0 0 -1 4 595)"><stop offset="0" stop-color="#446db5"/><stop offset=".606" stop-color="#446db5"/><stop offset=".764" stop-color="#628dad"/><stop offset=".903" stop-color="#6795b6"/></linearGradient><path fill="url(#d)" d="M466.715 348.807H300.793v205.475h95.604V433.765c1.227.376 2.532.585 3.893.585 1.518 0 2.966-.266 4.312-.728v120.66h95.605V348.807h-33.492z"/><path fill="#426DB5" d="M546.394 327.725l-9.538-55.614-29.272-57.838s-13.73-21.197-36.51-16.802l27.89 136.552 47.43-6.297z"/><path fill="#ED1F24" d="M502.057 348.807l-31-151.417c0-6.164-5.538-11.237-12.667-11.917l-.016-.083-.082.07a17.206 17.206 0 0 0-1.533-.07H342.982c-.247 0-.488.02-.732.03l-.034-.03-.006.033c-7.534.34-13.524 5.56-13.524 11.968l-30.03 151.418h203.4z"/><path fill="#32558E" d="M546.368 327.428c-.6-4.09-11.732-6.05-24.863-4.376-13.13 1.676-23.287 6.35-22.688 10.438.6 4.092 11.73 6.05 24.862 4.376 13.13-1.676 23.29-6.35 22.688-10.438z"/><linearGradient id="e" gradientUnits="userSpaceOnUse" x1="540.991" y1="246.739" x2="500.133" y2="259.301" gradientTransform="matrix(1 0 0 -1 4 595)"><stop offset="0" stop-color="#ffef00"/><stop offset="1" stop-color="#e7d31b"/></linearGradient><path fill="url(#e)" d="M540.196 326.81s-18.124-6.167-34.812 4.82l2.422 25.18L544 351.49l-3.804-24.68z"/><linearGradient id="f" gradientUnits="userSpaceOnUse" x1="557.917" y1="211.481" x2="496.11" y2="230.483" gradientTransform="matrix(1 0 0 -1 4 595)"><stop offset="0" stop-color="#ffef00"/><stop offset="1" stop-color="#e7d31b"/></linearGradient><path fill="url(#f)" d="M526.48 342.548c-17.69 2.412-30.078 18.707-27.665 36.396 1.334 9.802 6.934 17.967 14.668 22.896.426.05 4.062.868 5.953-.26 5.945-3.543-.98-12.218-3.712-19.548a16.86 16.86 0 0 1-2.217-6.363c-1.264-9.26 5.22-17.79 14.48-19.053.133-.02.267-.03.4-.043.134-.02.267-.047.397-.065 9.26-1.263 17.788 5.22 19.05 14.478a16.86 16.86 0 0 1-.432 6.728c-.67 7.79-5.02 18.005 1.65 19.83 2.127.58 5.412-1.183 5.81-1.348 6.134-6.816 9.343-16.185 8.007-25.984-2.408-17.69-18.7-30.076-36.39-27.666z"/><path fill="#426DB5" d="M301.04 334.5l27.887-136.552c-22.78-4.396-36.51 16.802-36.51 16.802l-29.27 57.84-9.54 55.613 47.432 6.297z"/><path fill="#32558E" d="M278.495 323.53c-13.13-1.675-24.264.285-24.863 4.376-.6 4.09 9.558 8.763 22.688 10.438 13.13 1.674 24.263-.284 24.863-4.376.6-4.09-9.557-8.762-22.688-10.438z"/><g><linearGradient id="g" gradientUnits="userSpaceOnUse" x1="291.249" y1="247.65" x2="253.23" y2="259.339" gradientTransform="matrix(1 0 0 -1 4 595)"><stop offset="0" stop-color="#ffef00"/><stop offset="1" stop-color="#e7d31b"/></linearGradient><path fill="url(#g)" d="M259.804 327.288L256 351.968l36.194 5.32 2.422-25.18c-16.688-10.987-34.812-4.82-34.812-4.82z"/></g><g><linearGradient id="h" gradientUnits="userSpaceOnUse" x1="296.7" y1="212.523" x2="234.896" y2="231.524" gradientTransform="matrix(1 0 0 -1 4 595)"><stop offset="0" stop-color="#ffef00"/><stop offset="1" stop-color="#e7d31b"/></linearGradient><path fill="url(#h)" d="M273.52 343.026c17.692 2.41 30.08 18.707 27.666 36.396-1.334 9.802-6.934 17.967-14.668 22.896-.426.05-4.062.867-5.954-.26-5.945-3.544.98-12.22 3.712-19.55a16.836 16.836 0 0 0 2.217-6.362c1.264-9.26-5.22-17.79-14.48-19.052-.133-.02-.267-.03-.4-.043-.134-.02-.267-.046-.398-.063-9.26-1.263-17.788 5.22-19.05 14.48-.32 2.322-.147 4.6.432 6.728.67 7.79 5.02 18.005-1.652 19.83-2.126.578-5.41-1.184-5.808-1.35-6.134-6.814-9.343-16.183-8.007-25.982 2.408-17.69 18.7-30.077 36.39-27.667z"/></g><g><path fill="#32558E" d="M302.362 286.472l-29.803-9.02a1.5 1.5 0 0 0-.87 2.87l29.803 9.02a1.5 1.5 0 1 0 .87-2.87"/></g><g><path fill="#32558E" d="M526.758 274.728l-27.452 14.695c-.73.39-1.006 1.3-.613 2.03.39.73 1.3 1.005 2.028.614l27.453-14.695a1.5 1.5 0 1 0-1.415-2.644"/></g><path fill="#32558E" d="M300.792 524.172h95.605v6.59h-95.605zM404.603 524.172h95.605v6.59h-95.605z"/><linearGradient id="i" gradientUnits="userSpaceOnUse" x1="344.509" y1="165.902" x2="344.509" y2="133.384" gradientTransform="matrix(1 0 0 -1 4 595)"><stop offset="0" stop-opacity=".57"/><stop offset="1" stop-opacity="0"/></linearGradient><path fill="url(#i)" d="M300.62 429.098h95.777v32.518H300.62z"/><linearGradient id="j" gradientUnits="userSpaceOnUse" x1="448.318" y1="165.902" x2="448.318" y2="133.384" gradientTransform="matrix(1 0 0 -1 4 595)"><stop offset="0" stop-opacity=".57"/><stop offset="1" stop-opacity="0"/></linearGradient><path fill="url(#j)" d="M404.43 429.098h95.778v32.518H404.43z"/><path fill="#32558E" d="M491.9 348.807H300.62v26.27h89.268v61.27c0 5.89 4.835 10.662 10.797 10.662 5.965 0 10.8-4.773 10.8-10.663v-61.27h89.194v-26.27h-8.78z"/><linearGradient id="k" gradientUnits="userSpaceOnUse" x1="387.423" y1="187.461" x2="387.423" y2="154.945" gradientTransform="matrix(-1 0 0 1 839.828 336.71)"><stop offset="0" stop-color="#FFF" stop-opacity=".57"/><stop offset=".09" stop-color="#e0e1e2" stop-opacity=".519"/><stop offset=".282" stop-color="#a9abad" stop-opacity=".409"/><stop offset=".465" stop-color="#7f8083" stop-opacity=".305"/><stop offset=".633" stop-color="#5d5e60" stop-opacity=".209"/><stop offset=".783" stop-color="#414042" stop-opacity=".123"/><stop offset=".911" stop-color="#19191a" stop-opacity=".051"/><stop offset="1" stop-opacity="0"/></linearGradient><path opacity=".45" fill="url(#k)" d="M404.603 491.655h95.605v32.517h-95.605z"/><linearGradient id="l" gradientUnits="userSpaceOnUse" x1="491.232" y1="187.461" x2="491.232" y2="154.945" gradientTransform="matrix(-1 0 0 1 839.828 336.71)"><stop offset="0" stop-color="#FFF" stop-opacity=".57"/><stop offset=".09" stop-color="#e0e1e2" stop-opacity=".519"/><stop offset=".282" stop-color="#a9abad" stop-opacity=".409"/><stop offset=".465" stop-color="#7f8083" stop-opacity=".305"/><stop offset=".633" stop-color="#5d5e60" stop-opacity=".209"/><stop offset=".783" stop-color="#414042" stop-opacity=".123"/><stop offset=".911" stop-color="#19191a" stop-opacity=".051"/><stop offset="1" stop-opacity="0"/></linearGradient><path opacity=".45" fill="url(#l)" d="M300.792 491.655h95.605v32.517h-95.605z"/><g><path d="M341.17 626.695l.77 2.95c.167.647.323 1.247.43 1.847h.037c.132-.587.324-1.21.516-1.835l.947-2.962h.888l.9 2.902c.215.695.383 1.308.515 1.895h.036c.095-.587.25-1.2.443-1.883l.828-2.915h1.044l-1.87 5.805h-.96l-.888-2.77a19.337 19.337 0 0 1-.516-1.908h-.024a17.108 17.108 0 0 1-.528 1.92l-.936 2.758h-.96l-1.75-5.805h1.08zM350.146 626.695l.768 2.95c.168.647.324 1.247.433 1.847h.035c.132-.587.324-1.21.516-1.835l.948-2.962h.887l.9 2.902c.216.695.384 1.308.516 1.895h.035c.096-.587.25-1.2.443-1.883l.827-2.915h1.044l-1.872 5.805h-.96l-.887-2.77a19.62 19.62 0 0 1-.516-1.908h-.023a17.325 17.325 0 0 1-.526 1.92l-.936 2.758h-.96l-1.75-5.805h1.078zM359.122 626.695l.768 2.95c.168.647.324 1.247.432 1.847h.036c.132-.587.324-1.21.516-1.835l.948-2.962h.887l.9 2.902c.215.695.383 1.308.515 1.895h.035c.097-.587.252-1.2.444-1.883l.827-2.915h1.045l-1.87 5.805h-.96l-.888-2.77a19.337 19.337 0 0 1-.516-1.908h-.023a17.325 17.325 0 0 1-.527 1.92l-.936 2.758h-.96l-1.75-5.805h1.078zM366.815 631.876c0-.443.3-.755.72-.755s.707.313.707.756c0 .433-.275.756-.72.756-.42 0-.707-.323-.707-.756zM372.766 632.5l-.084-.73h-.036c-.324.455-.947.862-1.775.862-1.174 0-1.773-.827-1.773-1.667 0-1.403 1.247-2.17 3.49-2.16v-.118c0-.48-.132-1.344-1.32-1.344-.54 0-1.103.168-1.51.432l-.24-.695c.48-.312 1.175-.516 1.906-.516 1.775 0 2.207 1.21 2.207 2.374v2.17c0 .505.024.997.096 1.393h-.96zm-.157-2.962c-1.152-.024-2.46.18-2.46 1.307 0 .684.456 1.008.996 1.008.756 0 1.235-.48 1.403-.972.035-.106.06-.227.06-.335v-1.007zM375.336 623.984h1.055v8.516h-1.054v-8.516zM378.167 623.984h1.055v8.516h-1.055v-8.516zM384.213 632.5l-.084-.73h-.037c-.324.455-.947.862-1.775.862-1.175 0-1.774-.827-1.774-1.667 0-1.403 1.247-2.17 3.49-2.16v-.118c0-.48-.132-1.344-1.32-1.344-.54 0-1.103.168-1.51.432l-.24-.695c.48-.312 1.175-.516 1.906-.516 1.775 0 2.207 1.21 2.207 2.374v2.17c0 .505.024.997.096 1.393h-.96zm-.156-2.962c-1.15-.024-2.458.18-2.458 1.307 0 .684.454 1.008.994 1.008.756 0 1.235-.48 1.403-.972.036-.106.06-.227.06-.335v-1.007zM386.783 628.267c0-.6-.013-1.092-.05-1.57h.937l.06.958h.024c.288-.552.96-1.09 1.92-1.09.803 0 2.05.478 2.05 2.47v3.466h-1.055v-3.345c0-.936-.35-1.716-1.345-1.716-.695 0-1.235.49-1.415 1.08a1.516 1.516 0 0 0-.072.49v3.49h-1.055v-4.233zM393.443 628.267c0-.6-.013-1.092-.05-1.57h.925l.048.935h.036c.324-.552.863-1.067 1.823-1.067.79 0 1.39.48 1.643 1.163h.024a2.4 2.4 0 0 1 .647-.756c.347-.264.73-.407 1.282-.407.768 0 1.907.504 1.907 2.52v3.417h-1.032v-3.286c0-1.115-.408-1.787-1.26-1.787-.6 0-1.067.442-1.247.96a1.732 1.732 0 0 0-.083.526v3.586h-1.03v-3.48c0-.922-.41-1.594-1.213-1.594-.66 0-1.14.527-1.307 1.056a1.43 1.43 0 0 0-.084.516v3.502h-1.03v-4.235zM407.59 632.284c-.277.144-.89.336-1.67.336-1.75 0-2.89-1.188-2.89-2.963 0-1.787 1.224-3.082 3.12-3.082.622 0 1.174.156 1.462.3l-.24.815c-.25-.144-.647-.275-1.223-.275-1.332 0-2.052.983-2.052 2.194 0 1.343.863 2.17 2.015 2.17.6 0 .995-.156 1.295-.288l.18.792zM412.04 632.5l-.083-.73h-.036c-.323.455-.946.862-1.774.862-1.175 0-1.774-.827-1.774-1.667 0-1.403 1.247-2.17 3.49-2.16v-.118c0-.48-.132-1.344-1.32-1.344-.54 0-1.103.168-1.51.432l-.24-.695c.48-.312 1.175-.516 1.906-.516 1.775 0 2.207 1.21 2.207 2.374v2.17c0 .505.024.997.096 1.393h-.96zm-.155-2.962c-1.15-.024-2.458.18-2.458 1.307 0 .684.455 1.008.995 1.008.756 0 1.235-.48 1.403-.972.036-.106.06-.227.06-.335v-1.007zM414.922 626.695l1.14 3.262c.19.528.348 1.008.468 1.487h.036c.132-.48.3-.96.49-1.487l1.13-3.262h1.102l-2.278 5.805h-1.008l-2.206-5.805h1.126zM425.42 629.55c0 2.146-1.487 3.082-2.89 3.082-1.572 0-2.783-1.15-2.783-2.986 0-1.942 1.27-3.082 2.878-3.082 1.667 0 2.795 1.21 2.795 2.986zm-4.606.06c0 1.27.73 2.23 1.763 2.23 1.008 0 1.763-.948 1.763-2.255 0-.983-.49-2.23-1.738-2.23s-1.788 1.15-1.788 2.254zM427.055 626.695l1.27 3.43c.133.384.277.84.373 1.188h.024c.107-.348.228-.79.37-1.21l1.152-3.407h1.116l-1.584 4.138c-.755 1.99-1.27 3.01-1.99 3.634-.516.456-1.03.636-1.296.684l-.264-.888c.264-.084.61-.252.924-.516.288-.228.647-.636.888-1.175.048-.108.084-.192.084-.252a.907.907 0 0 0-.072-.275l-2.146-5.35h1.15zM431.604 631.876c0-.443.3-.755.72-.755s.707.313.707.756c0 .433-.274.756-.72.756-.42 0-.706-.323-.706-.756zM438.477 632.284c-.276.144-.888.336-1.668.336-1.752 0-2.89-1.188-2.89-2.963 0-1.787 1.222-3.082 3.117-3.082.623 0 1.175.156 1.463.3l-.24.815c-.25-.144-.647-.275-1.223-.275-1.33 0-2.05.983-2.05 2.194 0 1.343.862 2.17 2.014 2.17.6 0 .996-.156 1.296-.288l.18.792zM444.896 629.55c0 2.146-1.487 3.082-2.89 3.082-1.572 0-2.783-1.15-2.783-2.986 0-1.942 1.27-3.082 2.878-3.082 1.668 0 2.796 1.21 2.796 2.986zm-4.606.06c0 1.27.73 2.23 1.763 2.23 1.008 0 1.763-.948 1.763-2.255 0-.983-.49-2.23-1.738-2.23-1.25 0-1.788 1.15-1.788 2.254zM445.69 631.876c0-.443.3-.755.72-.755s.708.313.708.756c0 .433-.275.756-.72.756-.42 0-.707-.323-.707-.756zM453.283 630.917c0 .6.013 1.127.05 1.583h-.937l-.06-.947h-.024a2.184 2.184 0 0 1-1.92 1.08c-.91 0-2.002-.505-2.002-2.544v-3.395h1.055v3.214c0 1.103.336 1.847 1.296 1.847.708 0 1.2-.492 1.392-.96.06-.156.097-.348.097-.54v-3.562h1.054v4.222zM456.082 629.357h.024c.144-.203.348-.455.516-.66l1.703-2.002h1.27l-2.24 2.387 2.554 3.418h-1.284l-2.003-2.782-.54.6v2.183h-1.043v-8.515h1.043v5.372z"/></g></svg>