<svg width="35" height="35" viewBox="0 0 35 35" xmlns="http://www.w3.org/2000/svg"><path d="M5 28.068s1.08-1.157 2.06-1.604c.98-.447 2.934-1.08 3.422-1.292.488-.21 1.608-.894 1.608-1.418 0-.524.115-2.993.115-2.993s-.673-.81-.95-1.384c-.275-.574-.513-1.438-.513-1.438s-.654-.34-.92-.817c-.27-.476-.297-1.653-.297-1.653l.437-.4-.002-4.958s.03-1.626.74-2.28c.71-.656 1.116-1.406 2.212-1.662 1.096-.257 2.812-.143 3.157-.143.343 0 .903.292 1.35.493.45.2 1.494-.105 1.75.276.257.382 1.634.948 1.634 2.49 0 1.54.01 3.335-.245 4.075-.258.74-.695 1.556-.695 1.556l.76.217s.344.707-.028 1.347c-.37.64-.896 1.458-1.222 1.458-.326 0-.396.713-.396.95 0 .238-.656 1.538-.857 1.538-.2 0-.23 3.05-.23 3.05s.55 1.51 1.482 1.748c.93.237 3.512.95 4.187 1.406.675.456 1.358 1.348 1.358 1.348M20.39 6.214c1.4-.244 1.706-.2 2.154 0 .45.2 1.45.288 1.706.67.256.38 1.633.947 1.633 2.488 0 1.54.012 3.336-.245 4.076-.256.74-.693 1.556-.693 1.556l.76.218s.343.707-.028 1.347c-.372.64-.897 1.457-1.223 1.457-.326 0-.396.712-.396.95s-.655 1.537-.855 1.537c-.2 0-.23 3.052-.23 3.052s.55 1.51 1.48 1.747c.932.237 3.514.95 4.19 1.406.674.455 1.357 1.346 1.357 1.346" stroke="#FFF" stroke-width="1.3" fill="none" fill-rule="evenodd"/></svg>