<svg width="35" height="35" viewBox="0 0 35 35" xmlns="http://www.w3.org/2000/svg"><path d="M17.5 31C24.956 31 31 24.956 31 17.5S24.956 4 17.5 4 4 10.044 4 17.5 10.044 31 17.5 31zm-8.31-2.742s.91-.974 1.733-1.35c.824-.376 2.468-.91 2.878-1.087.412-.176 1.355-.75 1.355-1.192 0-.44.097-2.518.097-2.518s-.567-.683-.8-1.165c-.232-.483-.432-1.21-.432-1.21s-.55-.286-.775-.687c-.225-.402-.25-1.392-.25-1.392l.37-.337-.002-4.172s.025-1.367.623-1.918c.598-.55.938-1.182 1.86-1.398.922-.215 2.366-.12 2.656-.12.29 0 .76.246 1.137.415.377.17 1.256-.088 1.47.233.217.32 1.375.797 1.375 2.093 0 1.296.01 2.807-.206 3.43-.216.623-.584 1.31-.584 1.31l.64.183s.288.594-.024 1.133c-.313.538-.755 1.225-1.03 1.225-.273 0-.332.6-.332.8 0 .2-.55 1.293-.72 1.293-.17 0-.193 2.567-.193 2.567s.463 1.27 1.246 1.47c.783.2 2.955.8 3.523 1.183.568.383 1.143 1.133 1.143 1.133" stroke="#FFF" stroke-width="1.3" fill="none" fill-rule="evenodd"/></svg>