<svg width="35" height="35" viewBox="0 0 35 35" xmlns="http://www.w3.org/2000/svg"><path d="M9.75 6.195v3.508M6.5 12.75h23m-3.75-6.555v3.508M5 7.95h26V29H5V7.95zm18.433 15.8h1.552m-5.82 0h1.55m-5.82 0h1.553m-5.82 0h1.55m11.246-3.485h1.552m-5.723-.026h1.552m-5.902-.003h1.552m-5.825.018h1.552m11.25-3.505h1.553m-5.82 0h1.55m-5.82 0h1.553m-5.82 0h1.55m11.255 0h1.552m-5.82 0h1.55m-5.82 0h1.553m-5.82 0h1.55" stroke="#FFF" stroke-width="1.3" fill="none" fill-rule="evenodd" stroke-linecap="square"/></svg>