<svg width="35" height="35" viewBox="0 0 35 35" xmlns="http://www.w3.org/2000/svg"><g transform="translate(4 4)" fill="none" fill-rule="evenodd"><path d="M11.796 11.575l1.702-.196 1.886-.38-1.802 6.71s-.29 1.096-.51 1.642c-.22.546-.357.914 0 1.12.36.204.697 0 .788-.078.09-.076 1.226-1.17 1.342-1.258.116-.086.126.098.126.098s-1.06 1.48-1.468 1.927c-.408.45-.567.535-.86.632-.293.097-1.075.1-1.382-.153-.307-.254-.733-.774-.59-1.526.145-.75.21-.88.21-.88l2.046-7.298-1.488-.06v-.3zM15.25 9.5a1.25 1.25 0 1 0 0-2.5 1.25 1.25 0 0 0 0 2.5z" fill="#FFF"/><circle stroke="#FFF" stroke-width="1.3" cx="14" cy="14" r="14"/></g></svg>