<svg width="35" height="35" viewBox="0 0 35 35" xmlns="http://www.w3.org/2000/svg"><path d="M16.59 18.528s-2.778 3.87-2.778 4.178c0 .308-1.387 6.206-1.387 6.206s.045 1.86 1.387 1.86 1.56-.81 1.705-1.296c.145-.486 1.64-5.333 1.64-5.333s3.443-5.38 3.692-5.847c.248-.465.89-1.217.444-2.43-.445-1.212-.75-2.62-.75-2.62s3.2 3.762 3.49 4.16c.288.4 0 1.122.43 1.242 1.118.31 1.355-.79 1.355-1.135s-4.376-7.85-4.376-7.85-1.825-.976-2.233-.976c-.407 0-1.32-.607-1.32-.607l-1.125.607-1.248.268-.48 1.554-1.6 1.438-3.76 1.298s-1.284-.283-1.487.192c-.203.475-.116.97.295 1.34.41.373 1.15.506 1.666.506s2.694-.505 2.694-.505l2.673-1.342 1.072 5.09zm-.86-9.733c1.578 0 2.858-1.298 2.858-2.898S17.308 3 15.728 3c-1.577 0-2.857 1.297-2.857 2.897 0 1.6 1.28 2.898 2.86 2.898zm2.42 13.794c-.243.582-.173 1.466.07 2.003.24.538 3.06 4.663 3.327 4.876.27.212.9.956 1.644.767.745-.19 1.082-.6 1.082-1.515 0-.915-2.892-4.832-3.03-5.098-.14-.267-.655-4.9-.655-4.9" stroke="#FFF" stroke-width="1.3" fill="none" fill-rule="evenodd"/></svg>