<svg width="35" height="35" viewBox="0 0 35 35" xmlns="http://www.w3.org/2000/svg"><path d="M4 19.47l5.096 1.375-2.225 4.83 2.836 2.332 4.642-2.105 1.37 4.874h3.967l1.728-4.874 4.258 2.333 2.663-2.56-2.186-4.83 4.842-1.374v-3.76l-4.39-2.47 1.957-3.384L25.67 6.28l-4.257 2.193L19.685 4h-3.968l-1.683 4.473L9.706 6.28 6.87 9.094l2.095 4.27L4 15.71v3.76zm13.586 1.75c2.2 0 3.984-1.813 3.984-4.05 0-2.236-1.783-4.05-3.984-4.05-2.2 0-3.983 1.814-3.983 4.05 0 2.237 1.783 4.05 3.983 4.05z" stroke="#FFF" stroke-width="1.3" fill="none" fill-rule="evenodd"/></svg>