<?xml version="1.0" encoding="UTF-8" standalone="no"?>
<svg width="30px" height="32px" viewBox="0 0 30 32" version="1.1" xmlns="http://www.w3.org/2000/svg" xmlns:xlink="http://www.w3.org/1999/xlink" xmlns:sketch="http://www.bohemiancoding.com/sketch/ns">
    <!-- Generator: Sketch 3.4.2 (15857) - http://www.bohemiancoding.com/sketch -->
    <title>Artboard 2</title>
    <desc>Created with Sketch.</desc>
    <defs></defs>
    <g id="Page-1" stroke="none" stroke-width="1" fill="none" fill-rule="evenodd" sketch:type="MSPage">
        <g id="v" sketch:type="MSArtboardGroup" transform="translate(-1875.000000, -1116.000000)" stroke="#222222" stroke-width="0.5" fill="#222222">
            <g id="Icons" sketch:type="MSLayerGroup" transform="translate(1812.000000, 1009.000000)">
                <g id="General-icons" transform="translate(3.000000, 106.000000)" sketch:type="MSShapeGroup">
                    <path d="M75,31 C82.1797017,31 88,25.1797017 88,18 C88,10.8202983 82.1797017,5 75,5 C67.8202983,5 62,10.8202983 62,18 C62,25.1797017 67.8202983,31 75,31 L75,31 Z M75,30.0714286 C68.3331341,30.0714286 62.9285714,24.6668659 62.9285714,18 C62.9285714,11.3331341 68.3331341,5.92857143 75,5.92857143 C81.6668659,5.92857143 87.0714286,11.3331341 87.0714286,18 C87.0714286,24.6668659 81.6668659,30.0714286 75,30.0714286 L75,30.0714286 Z M68.3684211,18 L68,18 L68,18.9285714 L68.3684211,18.9285714 L81.6315789,18.9285714 L82,18.9285714 L82,18 L81.6315789,18 L68.3684211,18 Z M74.5357143,24.8101504 L74.5357143,25.1785714 L75.4642857,25.1785714 L75.4642857,24.8101504 L75.4642857,11.5469925 L75.4642857,11.1785714 L74.5357143,11.1785714 L74.5357143,11.5469925 L74.5357143,24.8101504 Z" id="Add-new-booking"></path>
                </g>
            </g>
        </g>
        <g id="Artboard-2" sketch:type="MSArtboardGroup"></g>
    </g>
</svg>