<?xml version="1.0" encoding="UTF-8" standalone="no"?>
<svg width="32px" height="32px" viewBox="0 0 32 32" version="1.1" xmlns="http://www.w3.org/2000/svg" xmlns:xlink="http://www.w3.org/1999/xlink">
    <defs></defs>
    <g id="Page-1" stroke="none" stroke-width="1" fill="none" fill-rule="evenodd">
        <g id="symbol-promote" stroke="#555555" stroke-width="1.3">
            <path d="M2.95915321,13.0763695 C2.42942752,13.2338807 2,13.819052 2,14.3708306 L2,17.7180852 C2,18.2754851 2.42843934,18.8472895 2.95915321,18.995864 L20.8198592,23.9960067 L20.8198592,7.76557969 L2.95915321,13.0763695 Z M7.66565924,20.2042188 C7.63428844,20.4230832 7.61805559,20.646834 7.61805559,20.8743761 C7.61805559,23.4600148 9.7141299,25.5560891 12.2997686,25.5560891 L12.2997686,25.5560891 C14.2552204,25.5560891 15.9306656,24.357238 16.6312057,22.6544341 M26.5008776,15.7830132 L31.4300003,15.7830132 M26.5802995,11.393646 L31.1192906,6.85465488 M26.5157692,19.7277222 L30.7464247,23.9583777 M23.0739472,26.0144404 C23.4488245,26.4251685 23.7527225,26.3098687 23.7527225,25.7649269 L23.7527225,5.31067212 C23.7527225,4.76214157 23.4614101,4.66136987 23.1032166,5.08422458 L20.8261294,7.77237236 L20.8261294,23.5516559 L23.0739472,26.0144404 Z" id="Promote"></path>
        </g>
        <g id="resmio-icons" transform="translate(-225.000000, -207.000000)"></g>
    </g>
</svg>