<?xml version="1.0" encoding="UTF-8" standalone="no"?>
<svg width="35px" height="35px" viewBox="0 0 35 35" version="1.1" xmlns="http://www.w3.org/2000/svg" xmlns:xlink="http://www.w3.org/1999/xlink">
    <defs></defs>
    <g id="Page-1" stroke="none" stroke-width="1" fill="none" fill-rule="evenodd">
        <g id="symbol-restaurant" stroke="#FFFFFF" stroke-width="1.3">
            <path d="M11.767538,20.9640793 L11.767538,27.6826643 L23.9364435,27.6826643 L23.9364435,20.6964138 M13,18.2472056 C13.65577,19.8748237 15.1154788,21.2333876 17.902528,21.2333876 C21.1577636,21.2333876 22.4813637,19.6369663 22.9829088,18 M21.9829088,10.611182 C21.3271388,8.98356386 19.86743,7.625 17.0803807,7.625 C13.8251452,7.625 12.501545,9.22142133 12,10.8583876 M20.5957159,10.8594383 C21.3149742,9.53997411 29.0971739,9.26256842 28.5092092,15.9830355 C27.9212446,22.7035025 21.4175319,20.6601648 21.4175319,20.6601648 M14.329931,19.8790296 C13.7284086,21.2561603 6,22.2107738 6,15.4646356 C6,8.71849751 12.6570527,10.1872238 12.6570527,10.1872238" id="restaurant"></path>
        </g>
    </g>
</svg>