<?xml version="1.0" encoding="UTF-8" standalone="no"?>
<svg width="32px" height="32px" viewBox="0 0 32 32" version="1.1" xmlns="http://www.w3.org/2000/svg" xmlns:xlink="http://www.w3.org/1999/xlink">
    <defs></defs>
    <g id="Page-1" stroke="none" stroke-width="1" fill="none" fill-rule="evenodd">
        <g id="symbol-warning">
            <path d="M15.3701172,19.9473877 L16.673584,19.9473873 L16.673584,11.0684807 L15.3701172,11.0684811 L15.3701172,19.9473877 Z M16.0054932,24.1102295 C16.6958491,24.1102295 17.2554932,23.5505854 17.2554932,22.8602295 C17.2554932,22.1698736 16.6958491,21.6102295 16.0054932,21.6102295 C15.3151372,21.6102295 14.7554932,22.1698736 14.7554932,22.8602295 C14.7554932,23.5505854 15.3151372,24.1102295 16.0054932,24.1102295 Z" id="Shape" fill="#555555"></path>
            <path d="M15.5352206,2.86775832 C15.8017879,2.38850863 16.2359699,2.39208835 16.5005461,2.86775832 L30.553104,28.1322417 C30.8196713,28.6114914 30.5878682,29 30.036423,29 L1.99934371,29 C1.44742142,29 1.21808656,28.6079117 1.48266271,28.1322417 L15.5352206,2.86775832 Z" id="Rectangle-75" stroke="#555555" stroke-width="1.3"></path>
        </g>
        <g id="resmio-icons" transform="translate(-525.000000, -479.000000)"></g>
    </g>
</svg>