<?xml version="1.0" encoding="UTF-8" standalone="no"?>
<svg width="32px" height="32px" viewBox="0 0 32 32" version="1.1" xmlns="http://www.w3.org/2000/svg" xmlns:xlink="http://www.w3.org/1999/xlink">
    <defs></defs>
    <g id="Page-1" stroke="none" stroke-width="1" fill="none" fill-rule="evenodd">
        <g id="symbol-calendar" stroke="#555555" stroke-width="1.3" stroke-linecap="square">
            <path d="M7.75,5.19491525 L7.75,8.70338983 M5.45833333,11.75 L26.5416667,11.75 M23.75,5.19491525 L23.75,8.70338983 M3,7.95031691 C3,7.3973891 3.45127869,6.94915254 4.00329963,6.94915254 L27.9967004,6.94915254 C28.5508075,6.94915254 29,7.38882941 29,7.95031691 L29,26.9988356 C29,27.5517634 28.5487213,28 27.9967004,28 L4.00329963,28 C3.44919255,28 3,27.5603231 3,26.9988356 L3,7.95031691 Z M21.4328358,22.75 L22.9850746,22.75 M17.1641791,22.75 L18.7164179,22.75 M12.8955224,22.75 L14.4477612,22.75 M8.62686567,22.75 L10.1791045,22.75 M21.4241284,19.2652344 L22.9763672,19.2652344 M17.2527539,19.2386719 L18.8049927,19.2386719 M12.9032056,19.2369385 L14.4554444,19.2369385 M8.62978516,19.2545898 L10.182024,19.2545898 M21.4328358,15.75 L22.9850746,15.75 M17.1641791,15.75 L18.7164179,15.75 M12.8955224,15.75 L14.4477612,15.75 M8.62686567,15.75 L10.1791045,15.75 M21.4328358,15.75 L22.9850746,15.75 M17.1641791,15.75 L18.7164179,15.75 M12.8955224,15.75 L14.4477612,15.75 M8.62686567,15.75 L10.1791045,15.75" id="calendar"></path>
        </g>
        <g id="resmio-icons" transform="translate(-25.000000, -543.000000)"></g>
    </g>
</svg>