<?xml version="1.0" encoding="UTF-8" standalone="no"?>
<svg width="35px" height="35px" viewBox="0 0 35 35" version="1.1" xmlns="http://www.w3.org/2000/svg" xmlns:xlink="http://www.w3.org/1999/xlink">
    <defs></defs>
    <g id="Page-1" stroke="none" stroke-width="1" fill="none" fill-rule="evenodd">
        <g id="symbol-settings" stroke="#FFFFFF" stroke-width="1.3">
            <path d="M4,19.4710421 L9.09618659,20.8454544 L6.87099753,25.674877 L9.70614557,28.0071045 L14.3475059,25.9020948 L15.7174051,30.7758794 L19.6851163,30.7758794 L21.4127433,25.9020956 L25.6710285,28.2345215 L28.3330237,25.674877 L26.1467085,20.8454536 L30.9891937,19.4710416 L30.9891937,15.7092284 L26.6008993,13.2391286 L28.5569287,9.85645523 L25.6710285,6.28120108 L21.4127431,8.47319336 L19.6851156,4 L15.7174051,4 L14.0342277,8.47319336 L9.70614575,6.28120098 L6.8709976,9.09326174 L8.96462388,13.3640693 L4,15.7092281 L4,19.4710421 Z M17.5864497,21.2204101 C19.7865349,21.2204101 21.5700563,19.4071633 21.5700563,17.1704101 C21.5700563,14.9336568 19.7865349,13.1204101 17.5864497,13.1204101 C15.3863646,13.1204101 13.6028431,14.9336568 13.6028431,17.1704101 C13.6028431,19.4071633 15.3863646,21.2204101 17.5864497,21.2204101 Z" id="settings"></path>
        </g>
    </g>
</svg>