<?xml version="1.0" encoding="UTF-8" standalone="no"?>
<svg width="40px" height="40px" viewBox="0 0 40 40" version="1.1" xmlns="http://www.w3.org/2000/svg" xmlns:xlink="http://www.w3.org/1999/xlink">
    <defs></defs>
    <g id="Page-1" stroke="none" stroke-width="1" fill="none" fill-rule="evenodd">
        <g id="symbol-ticket">
            <path d="M27.7594802,35.7016545 C28.3151085,35.7016545 28.7655342,35.2558115 28.7655342,34.6976106 L28.7655344,6.00404396 C28.7655344,5.44952579 28.3239825,5 27.7689838,5 L23.8874567,5 C23.337077,5 22.7855923,5.44235816 22.6011803,5.95830132 C22.6011803,5.95830132 22.455885,7.83178096 20.0660127,7.82489338 C17.6761403,7.81800581 17.5491584,5.97277211 17.5491584,5.97277211 C17.3943242,5.45081595 16.8179691,5.03110585 16.261614,5.03532502 L12.0071922,5.06758885 C11.4509353,5.07180728 11,5.53193358 11,6.07681079 L11,34.7000707 C11,35.2532302 11.4391505,35.7016545 12.006054,35.7016545 M12.0071922,5.06758885 C11.4509353,5.07180728 11,5.53193358 11,6.07681079 L11,34.7000707 C11,35.2532302 11.4421532,35.7016545 11.9979077,35.7016545 L15.8847203,35.7016545 C16.4358495,35.7016545 17.0000713,35.2634797 17.2020793,34.7594092 C17.2020793,34.7594092 17.3488561,33.04535 19.7096764,33.0721821 C22.0704968,33.0990141 22.1584646,34.7602426 22.1584646,34.7602426 C22.3227251,35.2801701 22.909659,35.7016545 23.4556673,35.7016545 L27.7657515,35.7016545 C28.3179162,35.7016545 28.7655342,35.2558115 28.7655342,34.6976106 L28.7655344,6.00404396 C28.7655344,5.44952579 28.3239825,5 27.7689838,5 L23.8874567,5 C23.337077,5 22.7855923,5.44235816 22.6011803,5.95830132 C22.6011803,5.95830132 22.455885,7.83178096 20.0660127,7.82489338 C17.6761403,7.81800581 17.5491584,5.97277211 17.5491584,5.97277211 C17.3943242,5.45081595 16.8179691,5.03110585 16.261614,5.03532502 L12.0071922,5.06758885 Z M11.5,29.5 L28.5293865,29.5 M11.5,11.5 L28.5293865,11.5" id="Path-150" stroke="#555555" stroke-width="1.3"></path>
            <path d="M22.9123534,22.2189508 C22.9123534,22.8112779 22.690234,23.3001582 22.2459887,23.6856064 C21.8017433,24.0710546 21.1811158,24.3138615 20.3840873,24.4140345 L20.3840873,25.9296875 L19.541332,25.9296875 L19.541332,24.4728314 C19.0535332,24.4728314 18.5809852,24.4347227 18.1236738,24.3585041 C17.6663624,24.2822855 17.2918082,24.17667 17,24.0416542 L17,23.0225082 C17.3614938,23.183656 17.7785119,23.3154033 18.251067,23.4177539 C18.7236221,23.5201046 19.1537062,23.5712791 19.541332,23.5712791 L19.541332,20.6967648 C18.648486,20.4136673 18.0224143,20.0848435 17.6630982,19.7102837 C17.3037821,19.3357239 17.1241268,18.8522877 17.1241268,18.2599606 C17.1241268,17.6894102 17.3451573,17.2212175 17.787225,16.8553684 C18.2292926,16.4895192 18.8139891,16.2673999 19.541332,16.1890037 L19.541332,15 L20.3840873,15 L20.3840873,16.1759377 C21.1854711,16.1977144 21.9585335,16.3588598 22.7032978,16.6593787 L22.3635824,17.5152001 C21.7146358,17.2582346 21.0548107,17.1057998 20.3840873,17.057891 L20.3840873,19.8932074 C21.0678768,20.1109747 21.5796223,20.3232947 21.9193393,20.5301736 C22.2590564,20.7370526 22.509485,20.9744154 22.6706328,21.2422692 C22.8317807,21.510123 22.9123534,21.8356803 22.9123534,22.2189508 L22.9123534,22.2189508 Z M21.8017456,22.3038796 C21.8017456,21.9902947 21.7048405,21.7365996 21.5110276,21.5427866 C21.3172147,21.3489737 20.9415717,21.1562525 20.3840873,20.9646173 L20.3840873,23.5059493 C21.3291975,23.3752889 21.8017456,22.974603 21.8017456,22.3038796 L21.8017456,22.3038796 Z M18.2282016,18.2468946 C18.2282016,18.577901 18.3261954,18.8435731 18.522186,19.043919 C18.7181766,19.244265 19.0578885,19.4337197 19.541332,19.6122889 L19.541332,17.0840229 C19.1101527,17.1537084 18.7835066,17.289811 18.5613839,17.4923346 C18.3392613,17.6948582 18.2282016,17.9463757 18.2282016,18.2468946 L18.2282016,18.2468946 Z" id="$" fill="#555555"></path>
        </g>
        <g id="resmio-icons" transform="translate(-265.000000, -877.000000)"></g>
    </g>
</svg>