<?xml version="1.0" encoding="UTF-8" standalone="no"?>
<svg width="35px" height="35px" viewBox="0 0 35 35" version="1.1" xmlns="http://www.w3.org/2000/svg" xmlns:xlink="http://www.w3.org/1999/xlink">
    <defs></defs>
    <g id="Page-1" stroke="none" stroke-width="1" fill="none" fill-rule="evenodd">
        <g id="symbol-guests" stroke="#FFFFFF" stroke-width="1.3">
            <path d="M5,28.0683211 C5,28.0683211 6.08097198,26.9105226 7.060359,26.4635188 C8.03974603,26.016515 9.9937183,25.3828469 10.4816863,25.1721745 C10.9696544,24.961502 12.09024,24.2780168 12.0902399,23.7541865 C12.0902398,23.2303562 12.2054795,20.7614066 12.2054795,20.7614066 C12.2054795,20.7614066 11.5318976,19.9496273 11.2558027,19.3759799 C10.9797078,18.8023325 10.7418759,17.9381851 10.7418759,17.9381851 C10.7418759,17.9381851 10.088251,17.5977179 9.82070889,17.1208539 C9.55316674,16.6439898 9.52465695,15.4665347 9.52465701,15.4665346 C9.52465707,15.4665345 9.96175742,15.0664969 9.96175742,15.0664969 L9.96040696,10.1087909 C9.96040696,10.1087909 9.99011726,8.48418184 10.7007617,7.82920645 C11.4114062,7.17423107 11.8159455,6.42382291 12.9120727,6.16753465 C14.0081999,5.91124638 15.7241905,6.0252857 16.0685589,6.0252857 C16.4129273,6.0252857 16.9726201,6.31713611 17.4209743,6.51790521 C17.8693284,6.71867432 18.9142875,6.41271906 19.1705763,6.79415027 C19.4268651,7.17558149 20.8037372,7.74247649 20.8037383,9.2829067 C20.8037394,10.8233369 20.8149926,12.6188547 20.558704,13.3592094 C20.3024154,14.0995641 19.8653154,14.915545 19.8653154,14.915545 L20.625627,15.13342 C20.625627,15.13342 20.9686459,15.8400129 20.5971172,16.4804335 C20.2255886,17.1208541 19.700559,17.9381851 19.3746471,17.9381851 C19.0487353,17.9381852 18.9785109,18.65063 18.9785104,18.8884618 C18.9785099,19.1262935 18.3235348,20.4255916 18.1229158,20.4255911 C17.9222969,20.4255906 17.893787,23.476741 17.893787,23.476741 C17.893787,23.476741 18.4435756,24.9861103 19.3746466,25.2237922 C20.3057175,25.4614742 22.8873548,26.1746701 23.5621375,26.6303763 C24.2369203,27.0860824 24.9204049,27.9775398 24.9204049,27.9775398 M20.3890878,6.21413416 C21.7909672,5.97027951 22.096062,6.01336505 22.5444162,6.21413416 C22.9927703,6.41490326 23.9938826,6.50156311 24.2501714,6.88299432 C24.5064602,7.26442554 25.8833323,7.83132054 25.8833334,9.37175075 C25.8833345,10.912181 25.8945877,12.7076988 25.6382991,13.4480535 C25.3820104,14.1884082 24.9449105,15.004389 24.9449105,15.004389 L25.7052221,15.222264 C25.7052221,15.222264 26.048241,15.9288569 25.6767123,16.5692775 C25.3051836,17.2096982 24.780154,18.0270291 24.4542422,18.0270292 C24.1283304,18.0270293 24.0581059,18.7394741 24.0581054,18.9773058 C24.0581049,19.2151376 23.4031298,20.5144356 23.2025109,20.5144351 C23.0018919,20.5144346 22.973382,23.5655851 22.973382,23.5655851 C22.973382,23.5655851 23.5231707,25.0749543 24.4542416,25.3126363 C25.3853125,25.5503182 27.9669498,26.2635142 28.6417326,26.7192203 C29.3165153,27.1749264 30,28.0663839 30,28.0663839" id="Guests"></path>
        </g>
    </g>
</svg>