<?xml version="1.0" encoding="UTF-8" standalone="no"?>
<svg width="32px" height="32px" viewBox="0 0 32 32" version="1.1" xmlns="http://www.w3.org/2000/svg" xmlns:xlink="http://www.w3.org/1999/xlink">
    <defs></defs>
    <g id="Page-1" stroke="none" stroke-width="1" fill="none" fill-rule="evenodd">
        <g id="symbol-reservation">
            <path d="M4.00254719,22.0550002 C3.44885567,22.0546477 3.18487613,21.6478213 3.411382,21.1497371 L7.61563623,11.9046248 C7.84283623,11.4050143 8.47880116,11 9.02368118,11 L27.063151,11 L23.2925261,21.1234862 C23.0984282,21.6446061 22.4871165,22.0667683 21.9385335,22.066419 L4.00254719,22.0550002 Z M27.3408203,10.4169922 L27.3408203,18.945844 C27.3408203,19.4992052 26.8888921,19.947793 26.3479885,19.9477929 L24.090607,19.9477927" id="Path-1162" stroke="#555555" stroke-width="1.3"></path>
            <path d="M16.5572714,19.4005525 C16.4205964,19.3812155 16.3447926,19.3328729 16.353602,19.1781768 L16.4269911,17.4861878 C16.4364856,17.128453 16.4468392,16.9254144 16.1904225,16.7803867 C17.0946836,16.5 17.9018572,15.929558 18.3487183,14.8950276 C18.7496405,13.9668508 18.7225164,13 16.9821849,13 L14.0236213,13 L13.7939264,13.531768 L14.3738085,13.5994475 C14.5049913,13.609116 14.5076232,13.6477901 14.4449792,13.7928177 L12.1020902,19.2168508 C12.0394461,19.3618785 12.0075803,19.390884 11.8638686,19.410221 L11.2255187,19.4779006 L11,20 L13.4364641,20 L13.6619828,19.4779006 L13.0572714,19.4005525 C12.9205964,19.3812155 12.9192804,19.3618785 12.9861008,19.2071823 L13.9341146,17.0124309 L14.9976505,17.0124309 C15.3843909,17.0124309 15.4876558,17.109116 15.4797057,17.4185083 L15.4177034,19.4198895 L14.6288336,19.4779006 L14.4033149,20 L16.8881215,20 L17.109464,19.4875691 L16.5572714,19.4005525 Z M16.1165435,13.7058011 C17.2961015,13.7058011 17.8339925,13.9378453 17.4080127,14.9240331 C16.9235651,16.0455801 16.0428173,16.3162983 15.124309,16.3162983 L14.2348063,16.3162983 L15.3623999,13.7058011 L16.1165435,13.7058011 Z" id="R" fill="#555555"></path>
        </g>
        <g id="resmio-icons" transform="translate(-75.000000, -543.000000)"></g>
    </g>
</svg>