<?xml version="1.0" encoding="UTF-8" standalone="no"?>
<svg width="35px" height="35px" viewBox="0 0 35 35" version="1.1" xmlns="http://www.w3.org/2000/svg" xmlns:xlink="http://www.w3.org/1999/xlink">
    <defs></defs>
    <g id="Page-1" stroke="none" stroke-width="1" fill="none" fill-rule="evenodd">
        <g id="symbol-info">
            <g id="info" transform="translate(4.000000, 4.000000)">
                <path d="M11.7955807,11.5752135 L13.4979338,11.3789968 L15.383657,11 L13.582278,17.7107102 C13.582278,17.7107102 13.2930688,18.8058177 13.073108,19.3520297 C12.8531473,19.8982418 12.7150527,20.2656629 13.0731081,20.4709725 C13.4311635,20.6762822 13.7689878,20.4709725 13.8598829,20.3942576 C13.9507779,20.3175428 15.0856162,19.222611 15.2017578,19.1363892 C15.3178993,19.0501674 15.3276224,19.2344844 15.3276224,19.2344844 C15.3276224,19.2344844 14.2678675,20.712759 13.8598829,21.1610381 C13.4518983,21.6093172 13.2930688,21.6948326 13.0000763,21.7919101 C12.7070839,21.8889876 11.9252787,21.8919341 11.6181562,21.639217 C11.3110336,21.3864999 10.8845241,20.8658595 11.0290091,20.1142326 C11.173494,19.3626057 11.2377388,19.2344844 11.2377388,19.2344844 L13.2841967,11.9359259 L11.7955807,11.8769927 L11.7955807,11.5752135 Z M15.25,9.5 C15.9403559,9.5 16.5,8.94035594 16.5,8.25 C16.5,7.55964406 15.9403559,7 15.25,7 C14.5596441,7 14,7.55964406 14,8.25 C14,8.94035594 14.5596441,9.5 15.25,9.5 Z" id="Path-1075" fill="#FFFFFF"></path>
                <circle id="Oval-40" stroke="#FFFFFF" stroke-width="1.3" cx="14" cy="14" r="14"></circle>
            </g>
        </g>
    </g>
</svg>