<?xml version="1.0" encoding="UTF-8" standalone="no"?>
<svg width="32px" height="32px" viewBox="0 0 32 32" version="1.1" xmlns="http://www.w3.org/2000/svg" xmlns:xlink="http://www.w3.org/1999/xlink">
    <defs></defs>
    <g id="Page-1" stroke="none" stroke-width="1" fill="none" fill-rule="evenodd">
        <g id="symbol-card" stroke="#555555">
            <g id="Group" transform="translate(2.000000, 8.000000)">
                <path d="M0,1.99556998 C0,0.893447111 0.899897516,0 1.99124431,0 L26.0087557,0 C27.1084896,0 28,0.894187745 28,1.99556998 L28,15.5495805 C28,16.6517034 27.1001025,17.5451505 26.0087557,17.5451505 L1.99124431,17.5451505 C0.891510444,17.5451505 0,16.6509628 0,15.5495805 L0,1.99556998 Z M22.2743008,12.298046 C22.0118316,12.1103628 21.6908648,12 21.3442623,12 C20.4569852,12 19.7377049,12.7232323 19.7377049,13.6153846 C19.7377049,14.5075369 20.4569852,15.2307692 21.3442623,15.2307692 C21.6908648,15.2307692 22.0118316,15.1204064 22.2743008,14.9327232 C22.53677,15.1204064 22.8577367,15.2307692 23.2043393,15.2307692 C24.0916164,15.2307692 24.8108967,14.5075369 24.8108967,13.6153846 C24.8108967,12.7232323 24.0916164,12 23.2043393,12 C22.8577367,12 22.53677,12.1103628 22.2743008,12.298046 Z M3.21311475,3.77476105 C3.21311475,3.21942201 3.65521991,2.76923077 4.21315034,2.76923077 L6.34422671,2.76923077 C6.89653111,2.76923077 7.3442623,3.21376507 7.3442623,3.77476105 L7.3442623,5.91754664 C7.3442623,6.47288568 6.90215714,6.92307692 6.34422671,6.92307692 L4.21315034,6.92307692 C3.66084594,6.92307692 3.21311475,6.47854262 3.21311475,5.91754664 L3.21311475,3.77476105 Z M3.44262295,14.9197325 L12.6229508,14.9197325 L3.44262295,14.9197325 Z M8.00617724,13.0735786 L12.6229508,13.0735786 L8.00617724,13.0735786 Z M3.4160133,13.0735786 L6.62247555,13.0735786 L3.4160133,13.0735786 Z M3.44927536,9.28762542 L24.5507246,9.28762542 L3.44927536,9.28762542 Z" id="Oval-149"></path>
            </g>
        </g>
        <g id="resmio-icons" transform="translate(-75.000000, -599.000000)"></g>
    </g>
</svg>