<?xml version="1.0" encoding="UTF-8" standalone="no"?>
<svg width="32px" height="32px" viewBox="0 0 32 32" version="1.1" xmlns="http://www.w3.org/2000/svg" xmlns:xlink="http://www.w3.org/1999/xlink">
    <defs></defs>
    <g id="Page-1" stroke="none" stroke-width="1" fill="none" fill-rule="evenodd">
        <g id="symbol-location" stroke="#555555" stroke-width="1.3">
            <path d="M14.6331556,27.4081997 C14.979817,27.8347396 15.5565998,27.8570076 15.9289733,27.4390493 C15.9289733,27.4390493 24.1500003,18.6919606 24.1499996,12.7233516 C24.149999,6.75474261 20.4977258,4 15.2608416,4 C10.0239574,4 7,7.07184592 7,12.7233516 C7,18.3748573 14.6331556,27.4081997 14.6331556,27.4081997 Z M15.5079602,15.6424719 C17.2391032,15.6424719 18.6424719,14.2391032 18.6424719,12.5079602 C18.6424719,10.7768172 17.2391032,9.37344855 15.5079602,9.37344855 C13.7768172,9.37344855 12.3734486,10.7768172 12.3734486,12.5079602 C12.3734486,14.2391032 13.7768172,15.6424719 15.5079602,15.6424719 Z" id="arrived"></path>
        </g>
        <g id="resmio-icons" transform="translate(-275.000000, -543.000000)"></g>
    </g>
</svg>