<?xml version="1.0" encoding="UTF-8" standalone="no"?>
<svg width="32px" height="32px" viewBox="0 0 32 32" version="1.1" xmlns="http://www.w3.org/2000/svg" xmlns:xlink="http://www.w3.org/1999/xlink">
    <defs></defs>
    <g id="Page-1" stroke="none" stroke-width="1" fill="none" fill-rule="evenodd">
        <g id="symbol-scheduled" stroke="#555555" stroke-width="1.3" stroke-linecap="square">
            <path d="M7.75,6.19491525 L7.75,9.70338983 M5.45833333,12.75 L26.5416667,12.75 M23.75,6.19491525 L23.75,9.70338983 M3,8.95031691 C3,8.3973891 3.45127869,7.94915254 4.00329963,7.94915254 L27.9967004,7.94915254 C28.5508075,7.94915254 29,8.38882941 29,8.95031691 L29,27.9988356 C29,28.5517634 28.5487213,29 27.9967004,29 L4.00329963,29 C3.44919255,29 3,28.5603231 3,27.9988356 L3,8.95031691 Z M12,21.0941819 L14.3426151,23.4761829 C14.733302,23.8734384 15.3598824,23.8797253 15.7474677,23.4847775 L21.1300001,18" id="scheduled"></path>
        </g>
        <g id="resmio-icons" transform="translate(-25.000000, -342.000000)"></g>
    </g>
</svg>