<?xml version="1.0" encoding="UTF-8" standalone="no"?>
<svg width="40px" height="40px" viewBox="0 0 40 40" version="1.1" xmlns="http://www.w3.org/2000/svg" xmlns:xlink="http://www.w3.org/1999/xlink">
    <defs></defs>
    <g id="Page-1" stroke="none" stroke-width="1" fill="none" fill-rule="evenodd">
        <g id="symbol-direction" stroke="#555555" stroke-width="1.3">
            <g id="direction" transform="translate(6.000000, 8.000000)">
                <path d="M0.939221276,6.40656629 C0.528747417,6.04317945 0.534929678,5.44853991 0.939221276,5.09062614 L3.12547887,3.1551625 C3.53595273,2.79177566 4.31203291,2.49719243 4.87301303,2.49719243 L21.5441707,2.49719243 C22.0988333,2.49719243 22.5484762,2.94415673 22.5484762,3.49900502 L22.5484762,7.99818741 C22.5484762,8.55147322 22.1051508,9 21.5441707,9 L4.87301303,9 C4.31835043,9 3.52977047,8.69994369 3.12547887,8.34202993 L0.939221276,6.40656629 Z M26.4169427,14.0906261 C26.8274165,14.454013 26.8212343,15.0486525 26.4169427,15.4065663 L24.2306851,17.3420299 C23.8202112,17.7054168 23.044131,18 22.4831509,18 L5.81199323,18 C5.25733062,18 4.80768774,17.5530357 4.80768774,16.9981874 L4.80768774,12.499005 C4.80768774,11.9457192 5.25101311,11.4971924 5.81199323,11.4971924 L22.4831509,11.4971924 C23.0378135,11.4971924 23.8263935,11.7972487 24.2306851,12.1551625 L26.4169427,14.0906261 Z" id="Rectangle-22" transform="translate(13.678082, 10.248596) rotate(-180.000000) translate(-13.678082, -10.248596) "></path>
                <path d="M11,17.9999999 L11,25.0000038 C11,25.5504152 11.4443699,25.9972107 11.9960464,25.9979544 L13.5125799,25.9999987 C14.0626811,26.0007403 14.5086262,25.5482292 14.5086262,25.0041441 L14.5086262,17.9999999 L11,17.9999999 L11,17.9999999 Z M14.5086262,3.14737957 L14.5086262,0.998879327 C14.5086262,0.449660484 14.0642563,0.00364732167 13.5125799,0.00267484381 L11.9960464,1.54624619e-06 C11.4459451,-0.000968154882 11,0.436119301 11,0.994651345 L11,3.14737949 M14.5,11.4999999 L14.5,8.49999994 L14.5,11.4999999 L14.5,11.4999999 Z M11,12.1473796 L11,9 L11,12.1473796 L11,12.1473796 Z" id="Path-202"></path>
            </g>
        </g>
        <g id="resmio-icons" transform="translate(-505.000000, -941.000000)"></g>
    </g>
</svg>