<?xml version="1.0" encoding="UTF-8" standalone="no"?>
<svg width="32px" height="32px" viewBox="0 0 32 32" version="1.1" xmlns="http://www.w3.org/2000/svg" xmlns:xlink="http://www.w3.org/1999/xlink">
    <defs></defs>
    <g id="Page-1" stroke="none" stroke-width="1" fill="none" fill-rule="evenodd">
        <g id="symbol-upgrade" stroke="#555555" stroke-width="1.3" stroke-linecap="square">
            <path d="M13.4893617,18.3750897 L13.4893617,6.99178664 C13.4893617,6.44403801 13.9368374,6 14.4832171,6 L28.0061446,6 C28.5550358,6 29,6.45594613 29,6.99470568 L29,26.8350816 C29,27.3844423 28.5525243,27.8297872 28.0061446,27.8297872 L14.4832171,27.8297872 C13.9343259,27.8297872 13.4893617,27.3873417 13.4893617,26.8229779 L13.4893617,24.6477726 M8.89361702,7.00834584 L8.89361702,14.7576116 C8.89361702,15.3145056 8.44130755,15.7659574 7.89122592,15.7659574 L3.0023911,15.7659574 C2.44878578,15.7659574 2,15.3209575 2,14.7576116 L2,7.00834584 C2,6.45145181 2.45230947,6 3.0023911,6 L7.89122592,6 C8.44483124,6 8.89361702,6.44499991 8.89361702,7.00834584 Z M5.33447266,16 L5.33447266,20.3455692 C5.33447266,20.9015685 5.78878367,21.3522949 6.33852366,21.3522949 L18.9890137,21.3522949 M18,19 L19.5352039,20.5352039 C19.9276465,20.9276465 19.9429076,21.5710019 19.5597719,21.9823993 L18,23.6572266" id="Line"></path>
        </g>
        <g id="resmio-icons" transform="translate(-125.000000, -599.000000)"></g>
    </g>
</svg>