<?xml version="1.0" encoding="UTF-8" standalone="no"?>
<svg width="32px" height="32px" viewBox="0 0 32 32" version="1.1" xmlns="http://www.w3.org/2000/svg" xmlns:xlink="http://www.w3.org/1999/xlink">
    <defs></defs>
    <g id="Page-1" stroke="none" stroke-width="1" fill="none" fill-rule="evenodd">
        <g id="symbol-restaurant" stroke="#555555" stroke-width="1.3">
            <path d="M10.767538,18.9640793 C10.767538,18.9640793 10.767538,19.4049044 10.767538,19.9554296 L10.767538,24.691314 C10.767538,25.2388216 11.2150677,25.6826643 11.7633706,25.6826643 L21.9406109,25.6826643 C22.4905941,25.6826643 22.9364435,25.2350153 22.9364435,24.681705 L22.9364435,18.6964138 M12,16.2472056 C12.65577,17.8748237 14.1154788,19.2333876 16.902528,19.2333876 C20.1577636,19.2333876 21.4813637,17.6369663 21.9829088,16 M20.9829088,8.61118199 C20.3271388,6.98356386 18.86743,5.625 16.0803807,5.625 C12.8251452,5.625 11.501545,7.22142133 11,8.8583876 M19.5957159,8.85943834 C20.3149742,7.53997411 28.0971739,7.26256842 27.5092092,13.9830355 C26.9212446,20.7035025 20.4175319,18.6601648 20.4175319,18.6601648 M13.329931,17.8790296 C12.7284086,19.2561603 5,20.2107738 5,13.4646356 C5,6.71849751 11.6570527,8.1872238 11.6570527,8.1872238" id="restaurant"></path>
        </g>
        <g id="resmio-icons" transform="translate(-125.000000, -207.000000)"></g>
    </g>
</svg>