<?xml version="1.0" encoding="UTF-8" standalone="no"?>
<svg width="32px" height="32px" viewBox="0 0 32 32" version="1.1" xmlns="http://www.w3.org/2000/svg" xmlns:xlink="http://www.w3.org/1999/xlink">
    <defs></defs>
    <g id="Page-1" stroke="none" stroke-width="1" fill="none" fill-rule="evenodd">
        <g id="symbol-guests"></g>
        <g id="resmio-icons" transform="translate(-75.000000, -207.000000)" stroke="#555555" stroke-width="1.3">
            <path d="M82,234.692234 C82,234.692234 83.1115331,233.501702 84.1186092,233.042061 C85.1256853,232.582419 87.1349001,231.930836 87.6366639,231.714208 C88.1384277,231.497579 89.2906943,230.794771 89.2906942,230.256131 C89.2906941,229.717491 89.4091919,227.178739 89.4091919,227.178739 C89.4091919,227.178739 88.7165666,226.344009 88.432666,225.754144 C88.1487654,225.164278 87.9042095,224.2757 87.9042095,224.2757 C87.9042095,224.2757 87.2321054,223.925607 86.9569994,223.435261 C86.6818933,222.944915 86.6525775,221.734171 86.6525775,221.734171 C86.6525776,221.734171 87.1020356,221.322824 87.1020356,221.322824 L87.100647,216.224954 C87.100647,216.224954 87.1311972,214.554414 87.8619329,213.880922 C88.5926687,213.207429 89.0086451,212.435805 90.1357618,212.172271 C91.2628785,211.908737 93.0273835,212.026001 93.3814878,212.026001 C93.7355921,212.026001 94.3111085,212.326102 94.7721385,212.532547 C95.2331685,212.738993 96.3076705,212.424387 96.5712051,212.816602 C96.8347396,213.208817 98.2505385,213.79174 98.2505396,215.375721 C98.2505407,216.959702 98.2621121,218.805982 97.9985777,219.567268 C97.7350434,220.328554 97.2855857,221.167604 97.2855857,221.167604 L98.0673928,221.391639 C98.0673928,221.391639 98.4201095,222.118208 98.038077,222.776735 C97.6560445,223.435262 97.1161713,224.2757 96.7810454,224.2757 C96.4459194,224.2757 96.3737096,225.008287 96.3737091,225.252843 C96.3737086,225.497398 95.7002161,226.83343 95.4939252,226.83343 C95.2876344,226.833429 95.2583185,229.970841 95.2583185,229.970841 C95.2583185,229.970841 95.8236507,231.522883 96.7810448,231.767285 C97.7384388,232.011687 100.393064,232.745046 101.086924,233.213636 C101.780784,233.682225 102.483592,234.598886 102.483592,234.598886 M95.1704249,212.532547 C95.8454127,212.532547 95.0086451,212.435805 96.1357618,212.172271 C97.2628785,211.908737 99.0273835,212.026001 99.3814878,212.026001 C99.7355921,212.026001 100.311109,212.326102 100.772138,212.532547 C101.233168,212.738993 102.307671,212.424387 102.571205,212.816602 C102.83474,213.208817 104.250539,213.79174 104.25054,215.375721 C104.250541,216.959702 104.262112,218.805982 103.998578,219.567268 C103.735043,220.328554 103.285586,221.167604 103.285586,221.167604 L104.067393,221.391639 C104.067393,221.391639 104.420109,222.118208 104.038077,222.776735 C103.656044,223.435262 103.116171,224.2757 102.781045,224.2757 C102.445919,224.2757 102.37371,225.008287 102.373709,225.252843 C102.373709,225.497398 101.700216,226.83343 101.493925,226.83343 C101.287634,226.833429 101.258318,229.970841 101.258318,229.970841 C101.258318,229.970841 101.823651,231.522883 102.781045,231.767285 C103.738439,232.011687 106.393064,232.745046 107.086924,233.213636 C107.780784,233.682225 108.483592,234.598886 108.483592,234.598886" id="account"></path>
        </g>
    </g>
</svg>