<?xml version="1.0" encoding="UTF-8" standalone="no"?>
<svg width="35px" height="35px" viewBox="0 0 35 35" version="1.1" xmlns="http://www.w3.org/2000/svg" xmlns:xlink="http://www.w3.org/1999/xlink">
    <defs></defs>
    <g id="Page-1" stroke="none" stroke-width="1" fill="none" fill-rule="evenodd" stroke-linecap="square">
        <g id="symbol-feedback" stroke="#FFFFFF" stroke-width="1.5">
            <path d="M8.84615385,10.75 L27.8717949,10.75 M8.84615385,17.75 L19.4358974,17.75 M8.84615385,13.75 L27.8717949,13.75 M4,6.99326924 C4,6.44470178 4.43981314,6 4.99653482,6 L31.0034652,6 C31.5538362,6 32,6.45119588 32,6.99326924 L32,22.5465035 C32,23.0950709 31.5489558,23.5397727 30.9929619,23.5397727 L27.4827181,23.5397727 C26.9265397,23.5397727 26.2374553,23.8789747 26.1792228,24.4235946 L26.5502824,28.5405145 C26.6359421,29.0867797 26.4370949,29.1728612 26.1029281,28.7342104 L22.1438335,24.0713313 C21.6928088,23.7777596 20.8843795,23.5397727 20.3217902,23.5397727 L5.00599431,23.5397727 C4.45039899,23.5397727 4,23.0885768 4,22.5465035 L4,6.99326924 Z" id="feedback"></path>
        </g>
    </g>
</svg>