<?xml version="1.0" encoding="utf-8"?>
<!-- Generator: Adobe Illustrator 19.1.0, SVG Export Plug-In . SVG Version: 6.00 Build 0)  -->
<svg version="1.1" xmlns="http://www.w3.org/2000/svg" xmlns:xlink="http://www.w3.org/1999/xlink" x="0px" y="0px"
	 viewBox="0 0 817.951 283.805" enable-background="new 0 0 817.951 283.805" xml:space="preserve">
<g id="icon">
	<g>
		<g>
			<path fill-rule="evenodd" clip-rule="evenodd" fill="#E52D50" d="M968.632,92.553c-26.153-31.257-73.146-34.984-112.962-21.459
				l17.184,75.215C892.036,114.084,934.406,98.076,968.632,92.553z"/>
			<path fill-rule="evenodd" clip-rule="evenodd" fill="#00A7C4" d="M1019.076,128.576c21.116-35.264,10.28-82.254-14.768-116.207
				l-65.003,40.093C975.948,60.949,1003.688,97.662,1019.076,128.576z"/>
			<path fill-rule="evenodd" clip-rule="evenodd" fill="#4AB6A0" d="M1002.377,185.229c43.266,6.691,76.663-10.904,102.332-49.338
				l-59.48-52.654C1047.918,123.815,1030.667,156.73,1002.377,185.229z"/>
			<path fill-rule="evenodd" clip-rule="evenodd" fill="#4F4494" d="M941.998,186.263c3.103,40.645,38.64,72.385,78.527,84.669
				l29.879-71.697C1015.831,213.659,972.426,201.927,941.998,186.263z"/>
			<path fill-rule="evenodd" clip-rule="evenodd" fill="#F8C04F" d="M922.469,127.265c-38.3,15.732-55.689,60.653-55.342,103.161
				l75.147,6.486C917.155,207.585,918.466,161.282,922.469,127.265z"/>
		</g>
	</g>
</g>
<g id="text">
	<g>
		<path fill-rule="evenodd" clip-rule="evenodd" fill="#333333" d="M1153.859,124.847l-5.947,57.797
			c0,1.505,0.753,2.846,2.515,3.852c1.673,1.088,4.188,1.591,7.537,1.591h4.859c7.034,0,10.719-1.926,11.136-5.611l5.529-56.37
			c4.524-5.947,9.631-8.965,15.329-8.965c1.677,0,3.182,0.253,4.605,0.756c1.342,0.585,2.261,0.834,2.597,0.834
			c1.256,0,2.765-2.008,4.523-6.028c1.677-3.938,2.515-7.456,2.515-10.389c0-5.443-2.683-8.122-8.208-8.122
			c-7.79,0-14.658,4.438-20.608,13.402c-0.25-2.85-0.417-4.859-0.585-6.032c-0.25-1.255-0.753-2.429-1.591-3.684
			c-0.752-1.174-1.927-1.759-3.435-1.759c-5.861,0-10.806,0.585-14.572,1.759c-3.852,1.255-5.779,2.679-5.779,4.605l0.335,9.799
			C1154.615,116.139,1154.28,120.327,1153.859,124.847z"/>
		<path fill-rule="evenodd" clip-rule="evenodd" fill="#333333" d="M1269.449,123.088c0,3.1-1.677,5.779-4.945,8.041
			c-3.349,2.348-8.711,3.435-16.162,3.435h-8.462c2.932-13.148,9.214-19.765,19.013-19.765
			C1265.927,114.798,1269.449,117.644,1269.449,123.088z M1238.624,150.731c5.778,0.838,11.812,1.255,18.261,1.255
			c9.966,0,18.759-2.679,26.383-8.04c7.623-5.276,11.39-13.402,11.39-24.208c0-5.529-2.094-10.805-6.282-15.999
			c-2.261-2.847-5.778-5.108-10.551-6.867c-4.859-1.758-10.556-2.679-17.173-2.679c-14.236,0-25.881,4.605-34.841,13.819
			c-9.047,9.129-13.57,23.201-13.57,42.383c0,12.228,3.432,21.692,10.302,28.563c6.785,6.781,17.254,10.217,31.242,10.217
			c6.363,0,12.813-1.007,19.094-2.932c6.282-1.926,10.135-5.026,11.477-9.378c0.253-0.838,0.503-2.932,0.838-6.118
			c0.335-3.182,0.585-5.779,0.585-7.537c0-1.591-0.503-2.43-1.423-2.43c-0.336,0-1.841,0.671-4.524,1.926
			c-2.597,1.342-6.028,2.597-10.216,3.853c-4.274,1.341-8.797,1.93-13.737,1.93c-4.941,0-8.961-1.173-12.061-3.689
			C1240.718,162.207,1238.959,157.597,1238.624,150.731z"/>
		<path fill-rule="evenodd" clip-rule="evenodd" fill="#333333" d="M1355.215,116.389c2.932,1.256,4.524,1.759,4.777,1.759
			c1.591,0,3.518-1.677,5.779-5.194c2.344-3.432,3.517-6.114,3.517-8.041c0-3.685-2.683-6.449-8.126-8.122
			c-5.358-1.677-11.223-2.597-17.59-2.597c-10.302,0-18.678,2.847-25.128,8.458c-6.531,5.611-9.714,13.652-9.714,24.122
			c0,4.858,1.088,8.878,3.264,12.065c2.179,3.263,4.777,5.611,7.877,7.034c3.015,1.509,6.028,2.765,9.128,3.853
			c3.101,1.088,5.612,2.429,7.873,3.938c2.094,1.591,3.182,3.599,3.182,6.028c0,5.947-3.853,8.797-11.558,8.797
			c-5.362,0-10.806-1.427-16.249-4.355c-1.844-1.092-2.846-1.595-3.1-1.595c-2.597,0-3.934,5.28-3.934,15.831
			c0,4.442,4.102,7.456,12.31,9.382c4.274,0.921,8.63,1.424,13.067,1.424c10.719,0,19.517-3.014,26.216-9.129
			c6.617-6.114,9.966-14.576,9.966-25.463c0-5.947-1.673-10.806-4.94-14.577c-3.268-3.767-6.867-6.282-10.719-7.451
			c-3.853-1.26-7.374-2.765-10.724-4.523c-3.267-1.759-4.859-3.853-4.859-6.368c0-4.691,3.268-7.034,9.967-7.034
			C1349.02,114.631,1352.202,115.215,1355.215,116.389z"/>
		<path fill-rule="evenodd" clip-rule="evenodd" fill="#333333" d="M1386.122,124.847l-5.947,57.797
			c0,1.505,0.839,2.846,2.515,3.852c1.673,1.088,4.188,1.591,7.537,1.591h4.94c7.035,0,10.724-1.926,11.055-5.611l5.615-56.537
			c4.523-6.872,9.799-10.221,15.746-10.221c5.946,0,8.878,2.932,8.878,8.797c0,1.17-2.012,20.518-5.865,58.129
			c0,1.505,0.839,2.846,2.597,3.852c1.677,1.088,4.188,1.591,7.455,1.591h4.941c7.034,0,10.723-1.926,11.054-5.611l5.448-56.706
			c4.605-6.703,9.799-10.053,15.746-10.053c5.946,0,8.878,2.932,8.878,8.797l-4.021,42.211c0,14.993,7.035,22.449,21.276,22.449
			c3.517,0,6.784-0.838,9.966-2.344c3.182-1.591,5.026-3.853,5.526-6.871c0.756-4.773,1.173-8.123,1.173-9.881
			c0-1.759-0.503-2.597-1.341-2.597l-1.926,0.503c-1.256,0.335-2.261,0.503-3.182,0.503c-3.517,0-5.276-1.93-5.276-5.783
			l4.355-46.15c0-14.825-7.705-22.363-23.201-22.363c-5.276,0-10.555,1.423-15.831,4.103c-5.276,2.683-9.382,5.865-12.31,9.467
			c-2.597-9.046-9.967-13.57-22.199-13.57c-5.022,0-10.049,1.338-15.075,4.02c-5.026,2.597-9.047,5.778-12.147,9.549
			c-0.082-2.515-0.25-4.609-0.499-6.032c-0.671-3.684-2.429-5.611-5.113-5.611c-5.861,0-10.805,0.585-14.572,1.759
			c-3.853,1.255-5.779,2.679-5.779,4.605l0.335,9.799C1386.879,116.139,1386.543,120.327,1386.122,124.847z"/>
		<path fill-rule="evenodd" clip-rule="evenodd" fill="#333333" d="M1534.712,100.893l-6.617,65.834
			c0,14.993,7.034,22.449,21.275,22.449c3.432,0,6.785-0.838,9.966-2.344c3.182-1.591,5.026-3.853,5.53-6.871
			c0.752-4.773,1.169-8.123,1.169-9.881c0-1.759-0.503-2.597-1.423-2.597l-1.927,0.503c-1.255,0.335-2.261,0.503-3.1,0.503
			c-3.517,0-5.276-1.93-5.276-5.783c0-1.088,2.094-21.86,6.45-61.981c0-1.505-0.921-2.765-2.597-3.853
			c-1.673-1.087-4.188-1.591-7.37-1.591h-4.94C1538.814,95.282,1535.047,97.126,1534.712,100.893z M1563.357,74.845l1.591-14.49
			c0-1.509-0.838-2.765-2.511-3.853c-1.759-1.006-4.188-1.591-7.542-1.591h-4.855c-7.039,0-10.806,1.926-11.059,5.693l-1.673,14.408
			c0,1.505,0.834,2.846,2.596,3.934c1.673,1.006,4.188,1.509,7.537,1.509h4.859C1559.336,80.456,1563.022,78.612,1563.357,74.845z"
			/>
		<path fill-rule="evenodd" clip-rule="evenodd" fill="#333333" d="M1600.881,149.308c0-11.141,1.677-19.684,5.194-25.631
			c3.349-5.946,8.208-8.878,14.49-8.878c9.128,0,13.737,6.532,13.737,19.348c0,11.055-1.762,19.599-5.279,25.545
			c-3.432,5.947-8.208,8.797-14.323,8.797C1605.486,168.489,1600.881,162.121,1600.881,149.308z M1584.129,179.29
			c6.449,6.617,16,9.885,28.477,9.885c14.993,0,26.804-4.941,35.348-14.74c8.543-9.803,12.9-23.622,12.9-41.462
			c0-12.646-3.268-22.281-9.718-28.898c-6.449-6.532-16-9.881-28.477-9.881c-8.797,0-16.502,1.591-23.034,4.691
			c-6.449,3.096-11.476,7.37-14.993,12.813c-6.785,10.555-10.135,23.536-10.135,38.865
			C1574.497,163.127,1577.68,172.677,1584.129,179.29z"/>
	</g>
	<g>
		<g>
			<path fill-rule="evenodd" clip-rule="evenodd" fill="#F7F7F7" d="M119.346,100.553C93.193,69.296,46.2,65.569,6.384,79.094
				l17.184,75.215C42.75,122.084,85.12,106.076,119.346,100.553z"/>
			<path fill-rule="evenodd" clip-rule="evenodd" fill="#F7F7F7" d="M169.789,136.576c21.116-35.264,10.28-82.254-14.768-116.207
				L90.019,60.461C126.661,68.949,154.401,105.662,169.789,136.576z"/>
			<path fill-rule="evenodd" clip-rule="evenodd" fill="#F7F7F7" d="M153.091,193.229c43.266,6.691,76.663-10.904,102.332-49.338
				l-59.48-52.654C198.632,131.815,181.38,164.73,153.091,193.229z"/>
			<path fill-rule="evenodd" clip-rule="evenodd" fill="#F7F7F7" d="M92.711,194.263c3.103,40.645,38.64,72.385,78.527,84.669
				l29.879-71.697C166.545,221.659,123.14,209.927,92.711,194.263z"/>
			<path fill-rule="evenodd" clip-rule="evenodd" fill="#F7F7F7" d="M73.182,135.265c-38.3,15.732-55.689,60.653-55.342,103.161
				l75.147,6.486C67.869,215.585,69.179,169.282,73.182,135.265z"/>
		</g>
	</g>
	<g>
		<path fill-rule="evenodd" clip-rule="evenodd" fill="#F7F7F7" d="M304.573,132.847l-5.947,57.797c0,1.505,0.753,2.846,2.515,3.852
			c1.673,1.088,4.188,1.591,7.537,1.591h4.859c7.034,0,10.72-1.926,11.137-5.611l5.529-56.37c4.524-5.947,9.631-8.965,15.329-8.965
			c1.677,0,3.182,0.253,4.605,0.756c1.342,0.585,2.261,0.834,2.597,0.834c1.256,0,2.765-2.008,4.523-6.028
			c1.677-3.938,2.515-7.456,2.515-10.389c0-5.443-2.683-8.122-8.208-8.122c-7.79,0-14.658,4.438-20.608,13.402
			c-0.25-2.85-0.417-4.859-0.585-6.032c-0.25-1.255-0.753-2.429-1.591-3.684c-0.752-1.174-1.926-1.759-3.435-1.759
			c-5.861,0-10.806,0.585-14.572,1.759c-3.852,1.255-5.779,2.679-5.779,4.605l0.335,9.799
			C305.329,124.139,304.994,128.327,304.573,132.847z"/>
		<path fill-rule="evenodd" clip-rule="evenodd" fill="#F7F7F7" d="M420.162,131.088c0,3.1-1.677,5.779-4.945,8.041
			c-3.35,2.348-8.711,3.435-16.162,3.435h-8.462c2.932-13.148,9.214-19.765,19.013-19.765
			C416.641,122.798,420.162,125.644,420.162,131.088z M389.337,158.731c5.778,0.838,11.812,1.255,18.261,1.255
			c9.966,0,18.759-2.679,26.383-8.04c7.623-5.276,11.39-13.402,11.39-24.208c0-5.529-2.094-10.805-6.282-15.999
			c-2.261-2.847-5.778-5.108-10.551-6.867c-4.859-1.758-10.556-2.679-17.173-2.679c-14.236,0-25.881,4.605-34.841,13.819
			c-9.047,9.129-13.57,23.201-13.57,42.383c0,12.228,3.432,21.692,10.302,28.563c6.784,6.781,17.254,10.217,31.242,10.217
			c6.363,0,12.813-1.007,19.095-2.932c6.282-1.926,10.135-5.026,11.477-9.378c0.253-0.838,0.503-2.932,0.838-6.118
			c0.335-3.182,0.585-5.779,0.585-7.537c0-1.591-0.503-2.43-1.423-2.43c-0.336,0-1.841,0.671-4.524,1.926
			c-2.597,1.342-6.028,2.597-10.216,3.853c-4.274,1.341-8.797,1.93-13.737,1.93c-4.941,0-8.961-1.173-12.061-3.689
			C391.431,170.207,389.672,165.597,389.337,158.731z"/>
		<path fill-rule="evenodd" clip-rule="evenodd" fill="#F7F7F7" d="M505.929,124.389c2.932,1.256,4.524,1.759,4.777,1.759
			c1.591,0,3.518-1.677,5.779-5.194c2.344-3.432,3.517-6.114,3.517-8.041c0-3.685-2.683-6.449-8.126-8.122
			c-5.358-1.677-11.223-2.597-17.59-2.597c-10.302,0-18.678,2.847-25.128,8.458c-6.531,5.611-9.714,13.652-9.714,24.122
			c0,4.858,1.088,8.878,3.264,12.065c2.179,3.263,4.777,5.611,7.877,7.034c3.014,1.509,6.028,2.765,9.128,3.853
			c3.101,1.088,5.612,2.429,7.873,3.938c2.094,1.591,3.182,3.599,3.182,6.028c0,5.947-3.853,8.797-11.558,8.797
			c-5.362,0-10.806-1.427-16.249-4.355c-1.844-1.092-2.846-1.595-3.1-1.595c-2.597,0-3.934,5.28-3.934,15.831
			c0,4.442,4.102,7.456,12.31,9.382c4.274,0.921,8.63,1.424,13.067,1.424c10.719,0,19.517-3.014,26.216-9.129
			c6.617-6.114,9.966-14.576,9.966-25.463c0-5.947-1.673-10.806-4.94-14.577c-3.268-3.767-6.867-6.282-10.72-7.451
			c-3.853-1.26-7.374-2.765-10.724-4.523c-3.267-1.759-4.859-3.853-4.859-6.368c0-4.691,3.268-7.034,9.967-7.034
			C499.733,122.631,502.915,123.215,505.929,124.389z"/>
		<path fill-rule="evenodd" clip-rule="evenodd" fill="#F7F7F7" d="M536.836,132.847l-5.947,57.797c0,1.505,0.838,2.846,2.515,3.852
			c1.673,1.088,4.188,1.591,7.537,1.591h4.94c7.035,0,10.724-1.926,11.055-5.611l5.615-56.537
			c4.523-6.872,9.799-10.221,15.746-10.221c5.946,0,8.878,2.932,8.878,8.797c0,1.17-2.012,20.518-5.865,58.129
			c0,1.505,0.839,2.846,2.597,3.852c1.677,1.088,4.188,1.591,7.455,1.591h4.941c7.034,0,10.723-1.926,11.054-5.611l5.448-56.706
			c4.605-6.703,9.799-10.053,15.746-10.053c5.946,0,8.878,2.932,8.878,8.797l-4.02,42.211c0,14.993,7.035,22.449,21.276,22.449
			c3.517,0,6.784-0.838,9.966-2.344c3.182-1.591,5.026-3.853,5.526-6.871c0.756-4.773,1.173-8.123,1.173-9.881
			c0-1.759-0.503-2.597-1.341-2.597l-1.926,0.503c-1.256,0.335-2.261,0.503-3.182,0.503c-3.517,0-5.276-1.93-5.276-5.783
			l4.355-46.15c0-14.825-7.705-22.363-23.201-22.363c-5.276,0-10.555,1.423-15.831,4.103c-5.276,2.683-9.382,5.865-12.31,9.467
			c-2.597-9.046-9.967-13.57-22.199-13.57c-5.022,0-10.049,1.338-15.075,4.02c-5.026,2.597-9.047,5.778-12.147,9.549
			c-0.082-2.515-0.25-4.609-0.499-6.032c-0.671-3.684-2.429-5.611-5.113-5.611c-5.861,0-10.805,0.585-14.572,1.759
			c-3.853,1.255-5.779,2.679-5.779,4.605l0.335,9.799C537.592,124.139,537.257,128.327,536.836,132.847z"/>
		<path fill-rule="evenodd" clip-rule="evenodd" fill="#F7F7F7" d="M685.426,108.893l-6.617,65.834
			c0,14.993,7.034,22.449,21.275,22.449c3.432,0,6.785-0.838,9.966-2.344c3.182-1.591,5.026-3.853,5.53-6.871
			c0.752-4.773,1.169-8.123,1.169-9.881c0-1.759-0.503-2.597-1.423-2.597l-1.926,0.503c-1.255,0.335-2.262,0.503-3.1,0.503
			c-3.517,0-5.276-1.93-5.276-5.783c0-1.088,2.094-21.86,6.45-61.981c0-1.505-0.921-2.765-2.597-3.853
			c-1.673-1.087-4.188-1.591-7.37-1.591h-4.94C689.527,103.282,685.761,105.126,685.426,108.893z M714.07,82.845l1.591-14.49
			c0-1.509-0.838-2.765-2.511-3.853c-1.759-1.006-4.188-1.591-7.542-1.591h-4.855c-7.039,0-10.806,1.926-11.059,5.693l-1.673,14.408
			c0,1.505,0.834,2.846,2.596,3.934c1.673,1.006,4.188,1.509,7.537,1.509h4.859C710.05,88.456,713.735,86.612,714.07,82.845z"/>
		<path fill-rule="evenodd" clip-rule="evenodd" fill="#F7F7F7" d="M751.594,157.308c0-11.141,1.677-19.684,5.194-25.631
			c3.35-5.946,8.208-8.878,14.49-8.878c9.128,0,13.737,6.532,13.737,19.348c0,11.055-1.762,19.599-5.279,25.545
			c-3.432,5.947-8.208,8.797-14.323,8.797C756.199,176.489,751.594,170.121,751.594,157.308z M734.843,187.29
			c6.449,6.617,16,9.885,28.477,9.885c14.993,0,26.805-4.941,35.348-14.74c8.543-9.803,12.9-23.622,12.9-41.462
			c0-12.646-3.268-22.281-9.718-28.898c-6.449-6.532-16-9.881-28.477-9.881c-8.797,0-16.502,1.591-23.034,4.691
			c-6.449,3.096-11.476,7.37-14.993,12.813c-6.785,10.555-10.135,23.536-10.135,38.865
			C725.211,171.127,728.393,180.677,734.843,187.29z"/>
	</g>
</g>
</svg>
