<?xml version="1.0" encoding="UTF-8" standalone="no"?>
<svg width="32px" height="32px" viewBox="0 0 32 32" version="1.1" xmlns="http://www.w3.org/2000/svg" xmlns:xlink="http://www.w3.org/1999/xlink">
    <defs></defs>
    <g id="Page-1" stroke="none" stroke-width="1" fill="none" fill-rule="evenodd">
        <g id="symbol-double-arrow" stroke="#555555" stroke-width="1.3">
            <path d="M20.9884371,8.21578679 C20.9884371,8.21578679 9.39182892,8.0775953 8.83610513,8.21578679 C8.28038133,8.35397827 5.03741671,8.21578679 5.00034492,11.8759681 C4.96327314,15.5361494 7.9252451,15.8135234 8.6932032,16.0416116 C9.46116131,16.2696999 23.0539472,15.8347015 23.8271468,16.0416116 C24.6003464,16.2485218 27.0014239,16.6047671 27.0014235,19.8683578 C27.0014231,23.1319484 24.7631474,23.6356138 23.8271474,23.8527211 C22.8911475,24.0698285 10.8912118,23.8527211 10.8912118,23.8527211 M16.8767672,4 L20.2132245,7.40367896 C20.6018952,7.80018041 20.606177,8.44491578 20.2203817,8.84623899 L17.1190755,12.0723704 M14.8559533,27.9853985 L11.519496,24.5817195 C11.1308253,24.1852181 11.1265435,23.5404827 11.5123388,23.1391595 L14.613645,19.9130281" id="Path-1189"></path>
        </g>
        <g id="resmio-icons" transform="translate(-125.000000, -543.000000)"></g>
    </g>
</svg>