<?xml version="1.0" encoding="UTF-8" standalone="no"?>
<svg width="35px" height="35px" viewBox="0 0 35 35" version="1.1" xmlns="http://www.w3.org/2000/svg" xmlns:xlink="http://www.w3.org/1999/xlink">
    <defs></defs>
    <g id="Page-1" stroke="none" stroke-width="1" fill="none" fill-rule="evenodd">
        <g id="symbol-account" stroke="#FFFFFF" stroke-width="1.3">
            <path d="M17.5,31 C24.9558441,31 31,24.9558441 31,17.5 C31,10.0441559 24.9558441,4 17.5,4 C10.0441559,4 4,10.0441559 4,17.5 C4,24.9558441 10.0441559,31 17.5,31 Z M9.18952986,28.2578499 C9.18952986,28.2578499 10.098966,27.2837787 10.9229374,26.9077084 C11.7469088,26.5316381 13.3908117,25.9985247 13.8013458,25.8212831 C14.2118798,25.6440416 15.1546434,25.0690164 15.1546433,24.6283109 C15.1546433,24.1876055 15.251596,22.1104453 15.251596,22.1104453 C15.251596,22.1104453 14.6849026,21.4274845 14.4526202,20.9448672 C14.2203379,20.46225 14.0202467,19.7352313 14.0202467,19.7352313 C14.0202467,19.7352313 13.4703434,19.4487917 13.2452566,19.0475996 C13.0201698,18.6464075 12.9961842,17.6557988 12.9961842,17.6557987 C12.9961843,17.6557986 13.3639226,17.3192417 13.3639226,17.3192417 L13.3627865,13.1482574 C13.3627865,13.1482574 13.3877821,11.7814521 13.9856568,11.2304126 C14.5835315,10.679373 14.9238758,10.0480446 15.8460622,9.83242591 C16.7682487,9.61680716 18.2119345,9.71274996 18.5016562,9.71274996 C18.7913779,9.71274996 19.262255,9.95828761 19.6394614,10.1271973 C20.0166677,10.2961071 20.8958058,10.0387028 21.1114249,10.359606 C21.3270441,10.6805092 22.485425,11.1574455 22.4854259,12.45343 C22.4854268,13.7494145 22.4948943,15.2600076 22.2792753,15.8828779 C22.0636562,16.5057482 21.6959182,17.1922438 21.6959182,17.1922438 L22.3355785,17.3755449 C22.3355785,17.3755449 22.6241649,17.970011 22.3115928,18.5088054 C21.9990208,19.0475998 21.5573064,19.7352313 21.2831124,19.7352313 C21.0089185,19.7352314 20.9498377,20.3346207 20.9498373,20.5347117 C20.9498369,20.7348028 20.3987975,21.8279196 20.2300141,21.8279192 C20.0612307,21.8279187 20.037245,24.3948923 20.037245,24.3948923 C20.037245,24.3948923 20.4997895,25.6647449 21.2831119,25.8647098 C22.0664343,26.0646748 24.2384003,26.6646961 24.806104,27.0480878 C25.3738077,27.4314794 25.9488325,28.1814745 25.9488325,28.1814745" id="account"></path>
        </g>
    </g>
</svg>