<?xml version="1.0" encoding="UTF-8" standalone="no"?>
<svg width="32px" height="32px" viewBox="0 0 32 32" version="1.1" xmlns="http://www.w3.org/2000/svg" xmlns:xlink="http://www.w3.org/1999/xlink">
    <defs></defs>
    <g id="Page-1" stroke="none" stroke-width="1" fill="none" fill-rule="evenodd">
        <g id="symbol-noshow">
            <g id="no-show" transform="translate(1.000000, 8.000000)">
                <path d="M14.8064518,16.5892036 C23.4921017,16.5892036 28.9389273,9.98730441 28.9389273,9.98730441 C29.3111541,9.58424973 29.3153957,8.92583951 28.9256507,8.51952087 C28.9256507,8.51952087 23.4921017,1.97869091 14.8064518,1.97869091 C6.12080194,1.97869091 0.673976271,8.53297753 0.673976271,8.53297753 C0.301749455,8.93312541 0.297507919,9.59158855 0.673976271,9.98730441 C0.673976271,9.98730441 6.12080194,16.5892036 14.8064518,16.5892036 Z M15,16.5641026 C19.0085183,16.5641026 22.2580645,13.2923373 22.2580645,9.25641026 C22.2580645,5.22048324 19.0085183,1.94871795 15,1.94871795 C10.9914817,1.94871795 7.74193548,5.22048324 7.74193548,9.25641026 C7.74193548,13.2923373 10.9914817,16.5641026 15,16.5641026 Z M5.08064516,18.7564103 L24.9193548,0.243589744" id="Oval-22" stroke="#555555" stroke-width="1.3"></path>
                <ellipse id="Oval-24" fill="#555555" cx="14.7580645" cy="9.5" rx="3.62903226" ry="3.65384615"></ellipse>
            </g>
        </g>
        <g id="resmio-icons" transform="translate(-225.000000, -342.000000)"></g>
    </g>
</svg>