<?xml version="1.0" encoding="UTF-8" standalone="no"?>
<svg width="32px" height="32px" viewBox="0 0 32 32" version="1.1" xmlns="http://www.w3.org/2000/svg" xmlns:xlink="http://www.w3.org/1999/xlink">
    <defs></defs>
    <g id="Page-1" stroke="none" stroke-width="1" fill="none" fill-rule="evenodd">
        <g id="symbol-import" stroke="#555555" stroke-width="1.3" stroke-linecap="square">
            <path d="M27.4078123,18.3420736 L9.99773809,18.2248231 M14.926535,24.113495 L9.84750517,18.8755934 C9.46273594,18.4787886 9.4521932,17.8387991 9.83815935,17.4311363 L14.7562876,12.2365419 M18.1652645,22.7658387 L18.1652645,28.9724447 C18.1652645,29.526043 17.7221721,29.9748231 17.1642979,29.9748231 L5.84886958,29.9748231 C5.29605101,29.9748231 4.847903,29.5247418 4.847903,28.9753366 L4.847903,6.25884781 C4.847903,5.70684667 5.30263433,5.25936134 5.85288291,5.25936134 L17.5100968,5.25936134 C18.0651318,5.25936134 18.5150767,5.71367226 18.5150767,6.2692009 L18.5150767,12.5220056" id="logout" transform="translate(16.127858, 17.617092) scale(-1, -1) rotate(-270.000000) translate(-16.127858, -17.617092) "></path>
        </g>
        <g id="resmio-icons" transform="translate(-175.000000, -599.000000)"></g>
    </g>
</svg>