<?xml version="1.0" encoding="UTF-8" standalone="no"?>
<svg width="32px" height="32px" viewBox="0 0 32 32" version="1.1" xmlns="http://www.w3.org/2000/svg" xmlns:xlink="http://www.w3.org/1999/xlink">
    <defs></defs>
    <g id="Page-1" stroke="none" stroke-width="1" fill="none" fill-rule="evenodd">
        <g id="symbol-walkin" stroke="#555555" stroke-width="1.3">
            <path d="M16.5890165,18.5281776 L14.3606322,21.8802835 C14.0576194,22.3360985 13.7121984,23.151975 13.5951929,23.6753954 L12.4245483,28.9122386 C12.4245483,28.9122386 12.4698374,30.7729373 13.811979,30.7729373 C15.1541205,30.7729373 15.3731233,29.9621564 15.5173673,29.4760232 C15.6616113,28.98989 16.8623167,25.1004354 16.8623167,25.1004354 C17.0253876,24.5719041 17.3951893,23.7716213 17.6992895,23.2952703 C17.6992895,23.2952703 20.5995864,18.7616556 20.8487822,18.2963762 C21.097978,17.8310968 21.7396829,17.0793142 21.2942325,15.8664438 C20.8487822,14.6535735 20.544784,13.2457888 20.544784,13.2457888 C20.544784,13.2457888 23.7441122,17.0079164 24.0331804,17.4062673 C24.3222487,17.8046182 24.0331804,18.5281776 24.4650853,18.6481652 C25.5824243,18.9585734 25.8191179,17.8591812 25.8191179,17.5133654 C25.8191179,17.1675496 21.9376688,10.5121854 21.9376688,10.5121854 C21.6652047,10.0430374 21.0465601,9.45581399 20.551655,9.20918199 C20.551655,9.20918199 19.6190579,8.68709811 19.2110387,8.68709811 C18.8030194,8.68709811 17.8896599,8.08034856 17.8896599,8.08034856 L16.7652803,8.68709811 L15.5173673,8.95536734 L15.3327959,9.55171521 C15.1691119,10.0805762 14.6973593,10.8143101 14.2931949,11.1778826 L14.1808629,11.2789326 C13.7703911,11.648179 13.0062349,12.0964412 12.488648,12.2751223 L9.67691175,13.2457888 C9.67691175,13.2457888 8.39340455,12.9626579 8.19025735,13.4378737 C7.98711015,13.9130895 8.07444855,14.4073107 8.48453586,14.7791151 C8.89462316,15.1509195 9.63466218,15.283587 10.1505285,15.283587 C10.6663948,15.283587 11.8598395,14.9959843 11.8598395,14.9959843 C12.4033495,14.8762107 13.2384231,14.5812103 13.7341602,14.3325011 L14.6271585,13.8844877 C15.1188072,13.6378296 15.6087355,13.8718702 15.723992,14.4193355 L16.5890165,18.5281776 Z M15.7294118,8.79461538 C17.3082964,8.79461538 18.5882353,7.49744655 18.5882353,5.89730769 C18.5882353,4.29716884 17.3082964,3 15.7294118,3 C14.1505271,3 12.8705882,4.29716884 12.8705882,5.89730769 C12.8705882,7.49744655 14.1505271,8.79461538 15.7294118,8.79461538 Z M18.1505658,22.5885529 C17.9068751,23.1715748 17.9767233,24.0555717 18.2189913,24.5934724 C18.4612592,25.1313732 21.2785156,29.256327 21.5472541,29.4690561 C21.8159925,29.6817852 22.4473777,30.4264071 23.1913258,30.2371864 C23.9352738,30.0479657 24.2722771,29.636934 24.2722771,28.722094 C24.2722771,27.807254 21.8115443,24.4302131 21.8115443,24.4302131 C21.4967028,23.9848577 21.1810916,23.1715996 21.109067,22.6321741 L20.5871783,18.7235111" id="walkin"></path>
        </g>
        <g id="resmio-icons" transform="translate(-75.000000, -70.000000)"></g>
    </g>
</svg>