<?xml version="1.0" encoding="UTF-8" standalone="no"?>
<svg width="32px" height="32px" viewBox="0 0 32 32" version="1.1" xmlns="http://www.w3.org/2000/svg" xmlns:xlink="http://www.w3.org/1999/xlink">
    <defs></defs>
    <g id="Page-1" stroke="none" stroke-width="1" fill="none" fill-rule="evenodd">
        <g id="symbol-feedback" stroke="#555555" stroke-width="1.3" stroke-linecap="square">
            <path d="M6.84615385,10.75 L25.8717949,10.75 M6.84615385,17.75 L17.4358974,17.75 M6.84615385,14.25 L25.8717949,14.25 M2,6.99326924 C2,6.44470178 2.43981314,6 2.99653482,6 L29.0034652,6 C29.5538362,6 30,6.45119588 30,6.99326924 L30,22.5465035 C30,23.0950709 29.5489558,23.5397727 28.9929619,23.5397727 L25.4827181,23.5397727 C24.9265397,23.5397727 24.2374553,23.8789747 24.1792228,24.4235946 L24.5502824,28.5405145 C24.6359421,29.0867797 24.4370949,29.1728612 24.1029281,28.7342104 L20.1438335,24.0713313 C19.6928088,23.7777596 18.8843795,23.5397727 18.3217902,23.5397727 L3.00599431,23.5397727 C2.45039899,23.5397727 2,23.0885768 2,22.5465035 L2,6.99326924 Z" id="feedback"></path>
        </g>
        <g id="resmio-icons" transform="translate(-175.000000, -207.000000)"></g>
    </g>
</svg>