<?xml version="1.0" encoding="UTF-8" standalone="no"?>
<svg width="32px" height="32px" viewBox="0 0 32 32" version="1.1" xmlns="http://www.w3.org/2000/svg" xmlns:xlink="http://www.w3.org/1999/xlink">
    <defs></defs>
    <g id="Page-1" stroke="none" stroke-width="1" fill="none" fill-rule="evenodd">
        <g id="symbol-account" stroke="#555555" stroke-width="1.3">
            <path d="M16.5,30 C23.9558441,30 30,23.9558441 30,16.5 C30,9.04415588 23.9558441,3 16.5,3 C9.04415588,3 3,9.04415588 3,16.5 C3,23.9558441 9.04415588,30 16.5,30 Z M8.18952986,27.2578499 C8.18952986,27.2578499 9.09896602,26.2837787 9.9229374,25.9077084 C10.7469088,25.5316381 12.3908117,24.9985247 12.8013458,24.8212831 C13.2118798,24.6440416 14.1546434,24.0690164 14.1546433,23.6283109 C14.1546433,23.1876055 14.251596,21.1104453 14.251596,21.1104453 C14.251596,21.1104453 13.6849026,20.4274845 13.4526202,19.9448672 C13.2203379,19.46225 13.0202467,18.7352313 13.0202467,18.7352313 C13.0202467,18.7352313 12.4703434,18.4487917 12.2452566,18.0475996 C12.0201698,17.6464075 11.9961842,16.6557988 11.9961842,16.6557987 C11.9961843,16.6557986 12.3639226,16.3192417 12.3639226,16.3192417 L12.3627865,12.1482574 C12.3627865,12.1482574 12.3877821,10.7814521 12.9856568,10.2304126 C13.5835315,9.67937305 13.9238758,9.04804465 14.8460622,8.83242591 C15.7682487,8.61680716 17.2119345,8.71274996 17.5016562,8.71274996 C17.7913779,8.71274996 18.262255,8.95828761 18.6394614,9.12719734 C19.0166677,9.29610707 19.8958058,9.03870283 20.1114249,9.359606 C20.3270441,9.68050917 21.485425,10.1574455 21.4854259,11.45343 C21.4854268,12.7494145 21.4948943,14.2600076 21.2792753,14.8828779 C21.0636562,15.5057482 20.6959182,16.1922438 20.6959182,16.1922438 L21.3355785,16.3755449 C21.3355785,16.3755449 21.6241649,16.970011 21.3115928,17.5088054 C20.9990208,18.0475998 20.5573064,18.7352313 20.2831124,18.7352313 C20.0089185,18.7352314 19.9498377,19.3346207 19.9498373,19.5347117 C19.9498369,19.7348028 19.3987975,20.8279196 19.2300141,20.8279192 C19.0612307,20.8279187 19.037245,23.3948923 19.037245,23.3948923 C19.037245,23.3948923 19.4997895,24.6647449 20.2831119,24.8647098 C21.0664343,25.0646748 23.2384003,25.6646961 23.806104,26.0480878 C24.3738077,26.4314794 24.9488325,27.1814745 24.9488325,27.1814745" id="account"></path>
        </g>
        <g id="resmio-icons" transform="translate(-375.000000, -207.000000)"></g>
    </g>
</svg>