<?xml version="1.0" encoding="UTF-8" standalone="no"?>
<svg width="32px" height="32px" viewBox="0 0 32 32" version="1.1" xmlns="http://www.w3.org/2000/svg" xmlns:xlink="http://www.w3.org/1999/xlink">
    <defs></defs>
    <g id="Page-1" stroke="none" stroke-width="1" fill="none" fill-rule="evenodd">
        <g id="symbol-login" stroke="#555555" stroke-width="1.3" stroke-linecap="square">
            <path d="M9.73837676,16.9654618 L27.148451,17.0827122 M22.8914575,10.9771805 L27.9704873,16.2150821 C28.3552566,16.6118869 28.3657993,17.2518764 27.9798332,17.6595392 L23.0617049,22.8541337 M16.9059032,21.5064774 L16.9059032,27.7130834 C16.9059032,28.2666817 16.4628107,28.7154618 15.9049366,28.7154618 L4.58950825,28.7154618 C4.03668967,28.7154618 3.58854167,28.2653805 3.58854167,27.7159753 L3.58854167,4.99948648 C3.58854167,4.44748534 4.04327299,4 4.59352158,4 L16.2507354,4 C16.8057705,4 17.2557153,4.45431092 17.2557153,5.00983956 L17.2557153,11.2626442" id="logout" transform="translate(16.127858, 16.357731) scale(-1, -1) rotate(-180.000000) translate(-16.127858, -16.357731) "></path>
        </g>
        <g id="resmio-icons" transform="translate(-425.000000, -543.000000)"></g>
    </g>
</svg>