<?xml version="1.0" encoding="UTF-8" standalone="no"?>
<svg width="32px" height="32px" viewBox="0 0 32 32" version="1.1" xmlns="http://www.w3.org/2000/svg" xmlns:xlink="http://www.w3.org/1999/xlink">
    <defs></defs>
    <g id="Page-1" stroke="none" stroke-width="1" fill="none" fill-rule="evenodd">
        <g id="symbol-settings" stroke="#555555" stroke-width="1.3">
            <path d="M3,17.462945 C3,18.0197017 3.434498,18.5882237 3.95855372,18.7295586 L7.13763287,19.5869379 C7.66702747,19.7297126 7.90646822,20.2572082 7.67764555,20.7538318 L6.28953857,23.7664995 C6.05838473,24.2681825 6.21864233,24.9608538 6.64571419,25.3121684 L7.93142891,26.3698131 C8.35929311,26.7217794 9.11803534,26.8202989 9.62312902,26.5912223 L12.4305225,25.317977 C12.9369584,25.0882916 13.4690753,25.3346107 13.6181539,25.8649978 L14.4467571,28.8129764 C14.5962318,29.344773 15.172552,29.7758794 15.7186261,29.7758794 L17.6838952,29.7758794 C18.2368544,29.7758794 18.8324128,29.3603433 19.0182202,28.8361648 L20.0796395,25.8418101 C20.2636076,25.3228201 20.8057198,25.1173439 21.2950627,25.3853757 L23.788709,26.7512413 C24.2760006,27.0181496 24.9974413,26.9206588 25.3984304,26.5350874 L26.6056218,25.3743111 C27.0073547,24.9880243 27.1466197,24.263123 26.9217945,23.7664994 L25.5579377,20.7538312 C25.3308221,20.2521481 25.5764468,19.7234837 26.1034277,19.573914 L29.0324744,18.7425812 C29.5608559,18.592614 29.9891937,18.0247398 29.9891937,17.4629447 L29.9891937,15.7173253 C29.9891937,15.1605688 29.5997618,14.4900235 29.1222079,14.2212162 L26.4678851,12.7271408 C25.9890621,12.4576191 25.8252808,11.8510929 26.1046255,11.3680061 L27.0532025,9.72757767 C27.3314028,9.24647003 27.2696669,8.5005753 26.9307313,8.08067833 L25.2972259,6.05697798 C24.9513866,5.62852823 24.278052,5.48348943 23.788709,5.7353833 L21.2950626,7.01901114 C20.807771,7.26984905 20.2533087,7.06038401 20.0547775,6.5463448 L19.0430811,3.92684856 C18.8453822,3.41496423 18.2299687,3 17.6838947,3 L15.718626,3 C15.165667,3 14.5620728,3.41280935 14.3686497,3.92684856 L13.3829832,6.5463448 C13.1903708,7.05822913 12.63481,7.270905 12.1374463,7.01901112 L9.60292713,5.73538322 C9.10764845,5.48454529 8.39190277,5.59288499 7.99071816,5.99080264 L6.58642519,7.38366007 C6.19130544,7.77556225 6.06420823,8.48739388 6.31500189,8.99899018 L7.52061959,11.4583409 C7.76583639,11.9585609 7.55834787,12.5559835 7.05403534,12.7942076 L3.91058854,14.2790898 C3.40768438,14.5166486 3,15.15553 3,15.7173252 L3,17.462945 Z M16.5864497,20.2204101 C18.7865349,20.2204101 20.5700563,18.4071633 20.5700563,16.1704101 C20.5700563,13.9336568 18.7865349,12.1204101 16.5864497,12.1204101 C14.3863646,12.1204101 12.6028431,13.9336568 12.6028431,16.1704101 C12.6028431,18.4071633 14.3863646,20.2204101 16.5864497,20.2204101 Z" id="settings"></path>
        </g>
        <g id="resmio-icons" transform="translate(-275.000000, -207.000000)"></g>
    </g>
</svg>