<?xml version="1.0" encoding="UTF-8" standalone="no"?>
<svg width="32px" height="32px" viewBox="0 0 32 32" version="1.1" xmlns="http://www.w3.org/2000/svg" xmlns:xlink="http://www.w3.org/1999/xlink">
    <defs></defs>
    <g id="Page-1" stroke="none" stroke-width="1" fill="none" fill-rule="evenodd">
        <g id="symbol-bookings" stroke="#555555" stroke-width="1.3">
            <path d="M15.9040527,25.5283813 C15.9040527,25.5283813 16.3423321,25.4530519 16.8962259,25.3578512 L26.0921364,23.7773014 C26.6400985,23.6831203 27.0843096,23.1614911 27.0843096,22.6126281 L27.0843096,6.58740491 C27.0843096,6.03835474 26.6369887,5.66591361 26.1026822,5.75269343 L16.0228882,7.3898112 L16.0228882,7.3898112 M16,25.5436426 L16,6.92653251 M16.0915403,25.5436426 C16.0915403,25.5436426 15.6429286,25.4664598 15.1070802,25.3742681 L5.98265772,23.8044287 C5.43895539,23.7108858 4.99819756,23.189774 4.99819756,22.640911 L4.99819756,6.61568774 C4.99819756,6.06663757 5.44680929,5.69380892 5.98265772,5.78012586 L16.0915403,7.40851139 M15.9119263,27.586853 C15.9119263,27.586853 16.347926,27.5094754 16.8968701,27.4120534 L28.0311694,25.4360301 C28.5751389,25.3394909 29.0161133,24.8098268 29.0161133,24.2534158 L29.0161133,8.00781467 C29.0161133,7.451214 28.5688888,7 28.0215373,7 L27.6330038,7 M16.2209473,27.5949707 C16.2209473,27.5949707 15.7847383,27.517323 15.2355309,27.4195609 L4.09589,25.4366403 C3.55165957,25.3397641 3.11047363,24.8098268 3.11047363,24.2534158 L3.11047363,8.00781467 C3.11047363,7.451214 3.56433274,7 4.11694235,7 L4.57849222,7 M20.5255127,13.612793 L22.0562134,11.505127 L23.6552734,13.3431492 L23.7581787,6.13079834 L20.5255127,6.68035889 L20.5255127,13.612793 Z" id="Bookings"></path>
        </g>
        <g id="resmio-icons" transform="translate(-25.000000, -207.000000)"></g>
    </g>
</svg>