<?xml version="1.0" encoding="UTF-8" standalone="no"?>
<svg width="35px" height="35px" viewBox="0 0 35 35" version="1.1" xmlns="http://www.w3.org/2000/svg" xmlns:xlink="http://www.w3.org/1999/xlink">
    <defs></defs>
    <g id="Page-1" stroke="none" stroke-width="1" fill="none" fill-rule="evenodd" stroke-linecap="square">
        <g id="symbol-calendar" stroke="#FFFFFF" stroke-width="1.3">
            <path d="M9.75,6.19491525 L9.75,9.70338983 M6.5,12.75 L29.5,12.75 M25.75,6.19491525 L25.75,9.70338983 M5,7.94915254 L31,7.94915254 L31,29 L5,29 L5,7.94915254 Z M23.4328358,23.75 L24.9850746,23.75 M19.1641791,23.75 L20.7164179,23.75 M14.8955224,23.75 L16.4477612,23.75 M10.6268657,23.75 L12.1791045,23.75 M23.4241284,20.2652344 L24.9763672,20.2652344 M19.2527539,20.2386719 L20.8049927,20.2386719 M14.9032056,20.2369385 L16.4554444,20.2369385 M10.6297852,20.2545898 L12.182024,20.2545898 M23.4328358,16.75 L24.9850746,16.75 M19.1641791,16.75 L20.7164179,16.75 M14.8955224,16.75 L16.4477612,16.75 M10.6268657,16.75 L12.1791045,16.75 M23.4328358,16.75 L24.9850746,16.75 M19.1641791,16.75 L20.7164179,16.75 M14.8955224,16.75 L16.4477612,16.75 M10.6268657,16.75 L12.1791045,16.75" id="calendar"></path>
        </g>
    </g>
</svg>